<?xml version='1.0' encoding='utf8'?>
<svg xmlns="http://www.w3.org/2000/svg" enable-background="new 0 0 64 64" version="1.1" viewBox="0 0 64 64" x="0px" xml:space="preserve" xmlns:xlink="http://www.w3.org/1999/xlink" y="0px"><g id="wind"><g id="g4150" transform="matrix(.13087 0 0 .13087 -2.6334 57.128)">
  <g id="g4177" transform="matrix(.93750 0 0 .93750 24.641 -12)">
   <path d="m463.23-402.67h28.642v455.18h-28.642v-455.18z" id="path6" />
   <path d="m286-436.51-1.515 1.515-264.37 264.85 0.491 2.683c20.623 111.34 88.822 122.78 91.71 123.22l1.721 0.256 305.64-167.3 0.676-1.863 8.336-23.44 57.467-161.34-5.673-1.3c-1.075-0.236-107.07-24.484-162.48-33.679-14.592-2.416-24.361-3.604-29.88-3.604h-2.13zm-256.62 271.74 262.44-262.9-3.666 1.526c4.874 0 14.346 1.157 28.17 3.461 55.111 9.145 160.81 33.3 161.87 33.556l-3.717-6.82-63.867 179.32 2.386-2.816-302.39 165.54 3.277-0.563c-2.59-0.427-63.868-11.23-83.068-114.91l-1.433 4.598z" id="path8" />
   <path d="m284.08-424.39s-8.11 117.6 123.76 211.34l-60.774 37.356s-113.04-69.438-121.93-193.78l58.942-54.917z" id="path10" />
   <path d="m411.42-219.47c0.215-1.157 20.634-118.7-128.31-204.46l5.182-8.96c155.62 89.621 133.54 214.12 133.3 215.36l-10.178-1.935z" id="path12" />
   <path d="m168.63-312.12s-7.27 109.8 104.96 174.4l-59.587 35.901s-91.402-58.542-95.437-162.68l49.264-46.838z" id="path14" />
   <path d="m70.994-208.27s34.939 119.16 92.15 128.72l-54.006 33.362s-72.11-29.358-84.224-127.14l46.08-34.939z" id="path16" />
  </g>
 </g>
</g></svg>