<svg
   xmlns="http://www.w3.org/2000/svg"
   height="16"
   width="16">
  <path
     d="m 14.884593,9.044607 h 1.115409 v 5.352597 h -1.115409 v -2.396235 h -3.57937 c -0.271102,0.340213 -0.68886,0.558433 -1.157582,0.558433 -0.8170242,0 -1.4795963,-0.662555 -1.4795963,-1.479563 0,-0.489714 0.2380275,-0.923872 0.6046852,-1.1931922 L 9.068136,8.3604031 4.04446,9.7022896 0.33801038,4.567438 11.706104,1.6027859 l 1.459512,5.6631144 -2.845957,0.7601996 0.217979,1.6263035 c 0.462313,0.1260917 0.834539,0.4706406 0.998691,0.9159546 h 3.348278 V 9.0445826 Z"/>
  <path
     d="M 0.83412928,9.7507395 2.2254733,9.3253226 1.4867456,6.520422 1.879872e-6,6.9167423 0.83412928,9.7507433 Z"/>
</svg>
