<svg version="1.1" viewBox="0 0 16 16" xmlns="http://www.w3.org/2000/svg">
 <path id="icon" d="m15.852 9.6546-1.5247-6.6391c-0.0866-0.36329-0.416-0.72659-0.77929-0.832l-6.9685-2.1496c-0.0866-0.0339-0.19012-0.0339-0.29553-0.0339-0.29553 0-0.60612 0.12047-0.81506 0.29553l-4.992 4.6456c-0.27671 0.24282-0.416 0.72847-0.32941 1.0748l1.6301 7.1078c0.0866 0.3633 0.416 0.72848 0.77929 0.832l6.5167 2.0104c0.0866 0.0339 0.19011 0.0339 0.29553 0.0339 0.29552 0 0.60611-0.12047 0.81505-0.29553l5.3384-4.9562c0.27859-0.25977 0.416-0.72848 0.32941-1.0936zm-8.544-8.0433 4.7831 1.4739c0.19012 0.0527 0.19012 0.13929 0 0.19011l-2.5129 0.57224c-0.19012 0.0527-0.44989-0.0339-0.58918-0.17318l-1.7506-1.8899c-0.15623-0.15435-0.12235-0.224 0.0696-0.17318zm2.9798 8.5816c0.0527 0.19012-0.0696 0.29553-0.25976 0.24282l-5.1652-1.5944c-0.19012-0.0527-0.22588-0.20894-0.0866-0.34635l3.953-3.6762c0.13929-0.13929 0.29552-0.0866 0.34635 0.10353zm-8.5101-4.6814 4.1958-3.9002c0.13929-0.13929 0.36329-0.12047 0.50259 0.017l2.0969 2.272c0.13929 0.13929 0.12047 0.36329-0.0169 0.50258l-4.1958 3.9002c-0.13929 0.13929-0.36329 0.12047-0.50258-0.0169l-2.097-2.2701c-0.13929-0.15624-0.12047-0.38212 0.017-0.50447zm1.024 6.1892-1.1087-4.8715c-0.0527-0.19012 0.0339-0.22589 0.15624-0.0866l1.7506 1.8899c0.1393 0.13929 0.19012 0.416 0.1393 0.60612l-0.76424 2.4621c-0.0527 0.19011-0.13929 0.19011-0.17317 0zm6.1346 2.8424-5.4776-1.6809c-0.19012-0.0527-0.29553-0.25977-0.24283-0.44988l0.91859-2.9478c0.0527-0.19012 0.25977-0.29553 0.44988-0.24282l5.4776 1.6809c0.19012 0.0527 0.29553 0.25976 0.24282 0.44988l-0.91858 2.9478c-0.0678 0.192-0.25789 0.29552-0.44989 0.24282zm4.8527-3.9868-3.6555 3.3976c-0.13929 0.1393-0.20706 0.0866-0.15623-0.10353l0.76235-2.4621c0.0527-0.19012 0.25976-0.38212 0.44988-0.416l2.5129-0.57224c0.192-0.0508 0.22588 0.0358 0.0866 0.15624zm0.39906-0.72659-3.0155 0.6927c-0.19012 0.0527-0.38212-0.0696-0.43294-0.25976l-1.2819-5.5812c-0.0527-0.19012 0.0696-0.38212 0.25976-0.43294l3.0155-0.69271c0.19012-0.0527 0.38212 0.0696 0.43294 0.25977l1.2819 5.5812c0.0527 0.20705-0.0678 0.39717-0.25976 0.43294z" stroke-width=".018824"/>
</svg>
