<svg version="1.1" viewBox="0 0 16 16" xmlns="http://www.w3.org/2000/svg">
 <g id="icon" transform="matrix(.13021 0 0 .13021 2.048e-7 2.0599)">
  <path id="path2" d="m6.23 0h110.47c1.72 0 3.25 0.7 4.37 1.81 1.11 1.11 1.81 2.69 1.81 4.37v78.88c0 1.72-0.7 3.25-1.81 4.37-0.09 0.09-0.19 0.19-0.33 0.28-1.07 0.98-2.51 1.53-4.09 1.53h-110.47c-1.72 0-3.25-0.7-4.37-1.81-1.11-1.11-1.81-2.69-1.81-4.37v-78.88c0-1.72 0.7-3.25 1.81-4.37s2.7-1.81 4.37-1.81zm25.51 21.42c4.9 0 8.87 3.97 8.87 8.86 0 4.9-3.97 8.87-8.87 8.87s-8.87-3.97-8.87-8.87c0-4.89 3.97-8.86 8.87-8.86zm37.31 38.04 17.73-30.66 18.84 47.65h-87.92v-5.91l7.39-0.37 7.39-18.1 3.69 12.93h11.08l9.6-24.75zm46.49-52.12h-108.15v76.51h108.15z"/>
 </g>
</svg>
