<svg width="16" height="16" viewBox="0 0 16 16" xmlns="http://www.w3.org/2000/svg">
 <path id="icon" d="m0.57143 1.1429c-0.28571 0-0.57143 0.28571-0.57143 0.57143v12.571c0 0.29714 0.27429 0.57143 0.57143 0.57143h14.857c0.29714 0 0.57143-0.27543 0.57143-0.57143v-10.286c0-0.28571-0.28571-0.57143-0.57143-0.57143h-7.4286l-2.2857-2.2857zm10 4a1.4286 1.4286 0 0 1 1.4286 1.4286 1.4286 1.4286 0 0 1-1.4286 1.4286 1.4286 1.4286 0 0 1-0.9152-0.33257l-2.8014 1.4017a1.4286 1.4286 0 0 1 0.00229 0.073714 1.4286 1.4286 0 0 1-0.00446 0.073714l2.8035 1.4017a1.4286 1.4286 0 0 1 0.9152-0.33257 1.4286 1.4286 0 0 1 1.4286 1.4286 1.4286 1.4286 0 0 1-1.4286 1.4286 1.4286 1.4286 0 0 1-1.4286-1.4286 1.4286 1.4286 0 0 1 0.00446-0.07314l-2.8035-1.4023a1.4286 1.4286 0 0 1-0.9152 0.33257 1.4286 1.4286 0 0 1-1.4286-1.4286 1.4286 1.4286 0 0 1 1.4286-1.4286 1.4286 1.4286 0 0 1 0.9152 0.33257l2.8014-1.4017a1.4286 1.4286 0 0 1-0.00229-0.073714 1.4286 1.4286 0 0 1 1.4286-1.4286z" stroke-width="1.1429"/>
</svg>
