<svg width="16" height="16" viewBox="0 0 16 16" xmlns="http://www.w3.org/2000/svg">
 <path id="icon" d="m7.9397 4.975e-4a7.9926 8.0072 45.007 0 0-7.9394 8.0744 7.9926 8.0072 45.007 0 0 8.0601 7.9246 7.9926 8.0072 45.007 0 0 7.9394-8.0744 7.9926 8.0072 45.007 0 0-8.0601-7.9246zm-0.73672 3.4358c1.0863 0.03105 1.8613 0.72315 1.9783 1.7938 0.08911 0.81624-0.2175 1.7519-0.83791 2.557l2.0297 2.0416 0.52461-0.52163-0.71183-0.71589 0.78596-0.78136 1.9531 1.9648-0.78569 0.78136-0.65556-0.65934-0.52461 0.52136 1.3092 1.3168c0.0074 0.0063 0.01452 0.01289 0.02137 0.01975 0.19659 0.19765 0.13602 0.57657-0.13528 0.8463-0.27123 0.26958-0.65031 0.32796-0.84684 0.13041l-0.0011 0.0011-3.959-3.982c-0.27762 0.19909-0.57118 0.36306-0.87092 0.48646-1.6608 0.68379-3.1426-0.0015-3.3097-1.5305-0.16702-1.5291 1.0439-3.3229 2.7047-4.0066 0.3727-0.15347 0.74912-0.24182 1.1101-0.26054 0.07508-0.0039 0.1489-0.0048 0.22131-0.0027zm-0.39663 1.1187c-0.61204 0-1.1082 0.49616-1.1082 1.1082 4.71e-4 0.19605-0.0025 0.333 0.09659 0.50215-0.16926-0.09907-0.3063-0.09604-0.50242-0.09632-0.61204 0-1.1082 0.49616-1.1082 1.1082 0 0.61204 0.49616 1.1082 1.1082 1.1082 0.61204 0 1.1082-0.49616 1.1082-1.1082-5.4e-4 -0.19628 0.0023-0.31964-0.09713-0.48889 0.16936 0.09935 0.30661 0.08264 0.50296 0.08306 0.61204 0 1.1082-0.49616 1.1082-1.1082s-0.49616-1.1082-1.1082-1.1082z"/>
</svg>
