<svg width="16" height="16" viewBox="0 0 16 16" xmlns="http://www.w3.org/2000/svg">
 <path id="icon" d="m0.57143 0c-0.31657 0-0.57143 0.25486-0.57143 0.57143v1.1429c0 0.31657 0.25486 0.57143 0.57143 0.57143h14.857c0.31657 0 0.57143-0.25486 0.57143-0.57143v-1.1429c0-0.31657-0.25486-0.57143-0.57143-0.57143zm0 4.5714c-0.31657 0-0.57143 0.25486-0.57143 0.57143v1.1429c0 0.31657 0.25486 0.57143 0.57143 0.57143h10.286c0.31657 0 0.57143-0.25486 0.57143-0.57143v-1.1429c0-0.31657-0.25486-0.57143-0.57143-0.57143zm0 4.5714c-0.31657 0-0.57143 0.25486-0.57143 0.57143v1.1429c0 0.31657 0.25486 0.57143 0.57143 0.57143h13.714c0.31657 0 0.57143-0.25486 0.57143-0.57143v-1.1429c0-0.31657-0.25486-0.57143-0.57143-0.57143zm0 4.5714c-0.31657 0-0.57143 0.25486-0.57143 0.57143v1.1429c0 0.31657 0.25486 0.57143 0.57143 0.57143h6.8571c0.31657 0 0.57143-0.25486 0.57143-0.57143v-1.1429c0-0.31657-0.25486-0.57143-0.57143-0.57143z" stroke-width=".57143"/>
</svg>
