<svg version="1.1" viewBox="0 0 16 16" xmlns="http://www.w3.org/2000/svg"><path id="icon" d="m7.4286 0.57143v5.7143q0 0.54465-0.31696 0.99108-0.31697 0.44642-0.8259 0.625v6.9554q0 0.46429-0.33928 0.80357-0.33929 0.33929-0.80357 0.33929h-1.1429q-0.46429 0-0.80357-0.33929-0.33929-0.33928-0.33929-0.80357v-6.9554q-0.50893-0.17858-0.82589-0.625-0.31696-0.44643-0.31696-0.99108v-5.7143q0-0.23214 0.16964-0.40179 0.16964-0.16964 0.40178-0.16964 0.23215 0 0.40179 0.16964 0.16964 0.16965 0.16964 0.40179v3.7143q0 0.23215 0.16965 0.40179 0.16964 0.16964 0.40178 0.16964t0.40179-0.16964q0.16964-0.16964 0.16964-0.40179v-3.7143q0-0.23214 0.16964-0.40179 0.16965-0.16964 0.40179-0.16964t0.40178 0.16964q0.16965 0.16965 0.16965 0.40179v3.7143q0 0.23215 0.16964 0.40179t0.40179 0.16964q0.23214 0 0.40178-0.16964t0.16964-0.40179v-3.7143q0-0.23214 0.16965-0.40179 0.16964-0.16964 0.40178-0.16964 0.23215 0 0.40179 0.16964 0.16964 0.16965 0.16964 0.40179zm6.8571 0v14.286q0 0.46429-0.33928 0.80357-0.33929 0.33929-0.80357 0.33929h-1.1429q-0.46429 0-0.80357-0.33929-0.33929-0.33928-0.33929-0.80357v-4.5714h-2q-0.11607 0-0.20089-0.0848-0.0848-0.0848-0.0848-0.20089v-7.1429q0-1.1786 0.83928-2.0178 0.83927-0.83931 2.0178-0.83931h2.2857q0.23214 0 0.40178 0.16964 0.16964 0.16965 0.16964 0.40179z" stroke-width=".0089286"/></svg>
