<svg xmlns="http://www.w3.org/2000/svg" height="16" width="16" viewBox="0 0 16 16">
   <path
     d="m 8.012192,4.358028 c -1.658448,0 -3.06412,1.124318 -3.499785,2.647643 C 4.133769,6.197676 3.313247,5.631607 2.368149,5.631607 1.068415,5.631607 0,6.700023 0,7.999756 c 0,1.299732 1.068415,2.368635 2.368149,2.368635 0.945098,0 1.76562,-0.566414 2.144258,-1.374549 0.435665,1.523439 1.841337,2.64813 3.499785,2.64813 1.646184,0 3.044689,-1.107729 3.491495,-2.613986 0.385636,0.78979 1.196002,1.340405 2.127676,1.340405 C 14.931097,10.368391 16,9.299488 16,7.999756 16,6.700023 14.931097,5.631607 13.631363,5.631607 c -0.931674,0 -1.74204,0.55027 -2.127676,1.339919 C 11.056881,5.465387 9.658376,4.358028 8.012192,4.358028 Z m 0,1.390158 c 1.251941,0 2.25206,0.999634 2.25206,2.25157 0,1.251937 -1.000119,2.252058 -2.25206,2.252058 -1.251934,0 -2.251567,-1.000121 -2.251567,-2.252058 0,-1.251936 0.999633,-2.25157 2.251567,-2.25157 z M 2.368149,7.021767 c 0.548501,0 0.978476,0.429485 0.978476,0.977989 0,0.548503 -0.429975,0.978477 -0.978476,0.978477 -0.548505,0 -0.977991,-0.429974 -0.977991,-0.978477 0,-0.548504 0.429486,-0.977989 0.977991,-0.977989 z m 11.263214,0 c 0.548505,0 0.978476,0.429485 0.978476,0.977989 0,0.548503 -0.429973,0.978477 -0.978476,0.978477 -0.548501,0 -0.977987,-0.429974 -0.977987,-0.978477 0,-0.548504 0.429488,-0.977989 0.977987,-0.977989 z"/>
</svg>
