<svg width="16" height="16" viewBox="0 0 16 16" xmlns="http://www.w3.org/2000/svg">
 <path id="icon" d="m8.0122 4.358c-1.6584 0-3.0641 1.1243-3.4998 2.6476-0.37864-0.808-1.1992-1.3741-2.1443-1.3741-1.2997 0-2.3681 1.0684-2.3681 2.3681 0 1.2997 1.0684 2.3686 2.3681 2.3686 0.9451 0 1.7656-0.56641 2.1443-1.3745 0.43566 1.5234 1.8413 2.6481 3.4998 2.6481 1.6462 0 3.0447-1.1077 3.4915-2.614 0.38564 0.78979 1.196 1.3404 2.1277 1.3404 1.2997 0 2.3686-1.0689 2.3686-2.3686 0-1.2997-1.0689-2.3681-2.3686-2.3681-0.93167 0-1.742 0.55027-2.1277 1.3399-0.44681-1.5061-1.8453-2.6135-3.4915-2.6135zm0 1.3902c1.2519 0 2.2521 0.99963 2.2521 2.2516 0 1.2519-1.0001 2.2521-2.2521 2.2521-1.2519 0-2.2516-1.0001-2.2516-2.2521 0-1.2519 0.99963-2.2516 2.2516-2.2516zm-5.644 1.2736c0.5485 0 0.97848 0.42948 0.97848 0.97799 0 0.5485-0.42998 0.97848-0.97848 0.97848-0.5485 0-0.97799-0.42997-0.97799-0.97848 0-0.5485 0.42949-0.97799 0.97799-0.97799zm11.263 0c0.5485 0 0.97848 0.42948 0.97848 0.97799 0 0.5485-0.42997 0.97848-0.97848 0.97848-0.5485 0-0.97799-0.42997-0.97799-0.97848 0-0.5485 0.42949-0.97799 0.97799-0.97799z"/>
</svg>
