<svg viewBox="0 0 16 16" xmlns="http://www.w3.org/2000/svg">
 <path id="icon" d="m3.959 0c-2.1936 0-3.959 1.7654-3.959 3.959v8.082c0 2.1936 1.7654 3.959 3.959 3.959h8.082c2.1936 0 3.959-1.7654 3.959-3.959v-8.082c0-2.1936-1.7654-3.959-3.959-3.959h-8.082zm8.1816 1.8145c0.50995 0 1.0211 0.19372 1.4102 0.58203 0.77815 0.77663 0.77815 2.0359 0 2.8125l-2.8184-2.8125c0.38905-0.38831 0.89825-0.58203 1.4082-0.58203zm-2.1133 1.2852 2.8184 2.8125-5.9883 5.9766-2.8184-2.8125 5.9883-5.9766zm-6.6934 6.6797 2.8184 2.8125-3.875 1.0547 1.0566-3.8672z"/>
</svg>
