<svg viewBox="0 0 16 16" xmlns="http://www.w3.org/2000/svg"><path id="icon" d="m8.0001 1.41e-4c-4.4181 0-8.0001 3.5815-8.0001 7.9998 0 4.4181 3.5819 7.9999 8.0001 7.9999 4.4181 0 7.9999-3.5818 7.9999-7.9999 0-4.4183-3.5819-7.9998-7.9999-7.9998zm0 14.973c-1.257 0-2.2762-0.83972-2.2762-1.8753h4.5524c0 1.0354-1.0192 1.8753-2.2762 1.8753zm3.7595-2.4963h-7.5195v-1.3635h7.5196v1.3635zm-0.02696-2.0653h-7.4711c-0.02485-0.02866-0.05026-0.05689-0.07426-0.08598-0.7697-0.93459-0.95097-1.4225-1.127-1.9197-3e-3 -0.01638 0.93332 0.1913 1.5973 0.34066 0 0 0.34165 0.07906 0.84113 0.17012-0.47958-0.56217-0.76433-1.2768-0.76433-2.0073 0-1.6036 1.2299-3.005 0.78621-4.1376 0.43186 0.03515 0.89379 0.91144 0.92499 2.2816 0.45911-0.63445 0.65125-1.7931 0.65125-2.5035 0-0.73553 0.48466-1.5899 0.96946-1.6192-0.43214 0.71224 0.11195 1.3228 0.59562 2.8375 0.18141 0.56894 0.15826 1.5264 0.29831 2.1336 0.04645-1.2611 0.26329-3.1012 1.0633-3.7365-0.35294 0.80005 0.05224 1.8011 0.32937 2.2824 0.44711 0.77647 0.71817 1.3648 0.71817 2.4774 0 0.74598-0.27544 1.4483-0.74005 1.9974 0.52828-0.09911 0.89308-0.18847 0.89308-0.18847l1.7156-0.33473c1.41e-4 -1.41e-4 -0.24918 1.0251-1.2071 2.0123z" stroke-width=".14118"/></svg>
