<svg version="1.1" viewBox="0 0 16 16" xmlns="http://www.w3.org/2000/svg">
 <path id="icon" d="m15.97 7.0834c-0.031156-0.26998-0.076805-0.58195-0.16955-0.92259-0.092745-0.34064-0.24708-0.70994-0.44778-1.1072-0.21592-0.3833-0.47822-0.79527-0.83326-1.1786-0.13912-0.15599-0.29345-0.29797-0.44778-0.45396 0.24708-0.89459-0.29345-1.6752-0.29345-1.6752-0.94122-0.056662-1.5274 0.26998-1.7433 0.41197-0.03115-0.013999-0.0768-0.028664-0.10797-0.042663-0.15433-0.056662-0.32388-0.11332-0.49343-0.17065-0.16955-0.042663-0.33982-0.099325-0.50937-0.12799-0.16955-0.042663-0.35504-0.070661-0.5398-0.099325-0.03115 0-0.06159-0.013999-0.09275-0.013999-0.4014-1.1926-1.5738-1.7032-1.5738-1.7032-1.3426 0.79527-1.6049 1.8598-1.6049 1.8598s0 0.028664-0.015217 0.056662c-0.076804 0.013999-0.13912 0.042663-0.21592 0.056662-0.092749 0.028664-0.20071 0.056662-0.29345 0.099325-0.092749 0.042663-0.20071 0.070661-0.29345 0.11332-0.20071 0.085326-0.38547 0.17065-0.58618 0.26998a6.1733 5.6795 0 0 0-0.5398 0.31264c-0.031157-0.013999-0.046373-0.028664-0.046373-0.028664-1.8056-0.63861-3.4098 0.12799-3.4098 0.12799-0.13912 1.7745 0.7253 2.8818 0.89485 3.0804-0.046373 0.11332-0.076805 0.21265-0.12318 0.32664a7.7225 7.1047 0 0 0-0.29345 1.2352c-0.015216 0.05666-0.015216 0.12799-0.031156 0.18465-1.6665 0.7526-2.1599 2.3138-2.1599 2.3138 1.389 1.4765 3.0244 1.5619 3.0244 1.5619a6.9631 6.4061 0 0 0 0.71008 0.96525c0.10796 0.12799 0.23114 0.24131 0.35504 0.3693-0.50937 1.3346 0.076805 2.4558 0.076805 2.4558 1.5586 0.05666 2.5766-0.62461 2.7925-0.7806l0.463 0.12799c0.47822 0.11332 0.97237 0.18465 1.4506 0.19865h0.63255c0.7253 0.96525 2.0216 1.0932 2.0216 1.0932 0.91006-0.89459 0.97238-1.7605 0.97238-1.9592v-0.08532c0.18549-0.12799 0.37026-0.25531 0.55575-0.3973 0.37026-0.29797 0.67892-0.65328 0.95644-1.0219 0.03115-0.02867 0.04637-0.07066 0.0768-0.09933 1.034 0.05666 1.7593-0.59595 1.7593-0.59595-0.16955-0.99392-0.78688-1.4765-0.91006-1.5619l-0.04566-0.042c0-0.05666 0.01522-0.11332 0.01522-0.18465 0.01522-0.11332 0.01522-0.21265 0.01522-0.32664v-0.41197c0-0.02867 0-0.05666-0.01522-0.08533l-0.031142-0.17065c-0.015218-0.11332-0.04637-0.21265-0.061587-0.32664a4.5844 4.2176 0 0 0-0.52459-1.1926 4.8068 4.4223 0 0 0-0.87963-0.96525 4.2677 3.9263 0 0 0-1.1108-0.65328 3.8895 3.5784 0 0 0-1.2187-0.31264c-0.20071-0.028664-0.41663-0.028664-0.61734-0.028664h-0.30867c-0.10797 0.013999-0.21592 0.028664-0.30867 0.042663-0.41663 0.070661-0.8021 0.21265-1.1419 0.3973-0.33982 0.18465-0.63255 0.42596-0.87963 0.69527a3.1041 2.8558 0 0 0-0.55575 0.86593c-0.12318 0.29797-0.20071 0.62461-0.21592 0.92259v0.34064c0 0.04266 0 0.07066 0.015217 0.11332a2.6389 2.4278 0 0 0 0.50937 1.2066c0.18549 0.22731 0.38547 0.3973 0.61734 0.53929 0.23114 0.14199 0.463 0.24131 0.71008 0.31264 0.24708 0.07133 0.47822 0.09932 0.69414 0.08533h0.32316c0.031152 0 0.061586-0.014 0.076804-0.014 0.031163 0 0.046369-0.014 0.076804-0.014 0.04637-0.014 0.10796-0.02867 0.15433-0.04266 0.09275-0.02867 0.18549-0.07066 0.27751-0.09933 0.09275-0.04266 0.16955-0.08533 0.23114-0.12799 0.01522-0.014 0.04637-0.02866 0.06159-0.04266a0.1739 0.15999 0 0 0 0.03116-0.22731 0.21592 0.19865 0 0 0-0.23114-0.04266c-0.01522 0.014-0.03116 0.014-0.06159 0.02866a1.0361 0.95325 0 0 1-0.20071 0.07066c-0.0768 0.014-0.15433 0.04266-0.23114 0.05666-0.04637 0-0.0768 0.014-0.12318 0.014h-0.26157s-0.015217 0 0 0h-0.062315c-0.015946 0-0.046369 0-0.061587-0.014-0.16955-0.02867-0.35504-0.07066-0.52459-0.14199-0.16955-0.07133-0.33982-0.17065-0.47822-0.29797-0.15433-0.12799-0.27751-0.26998-0.38547-0.43996-0.10797-0.16999-0.16955-0.35464-0.20071-0.53929-0.015217-0.09932-0.031152-0.19865-0.015217-0.29797v-0.08533 0-0.07132c0-0.05666 0.015217-0.09933 0.031163-0.15599a2.2563 2.0758 0 0 1 0.66371-1.1499c0.092749-0.08533 0.18549-0.15599 0.29345-0.21265 0.10797-0.07066 0.21592-0.12799 0.32388-0.17065 0.10796-0.04266 0.23114-0.08533 0.35504-0.11332 0.12318-0.02866 0.24708-0.05666 0.37026-0.05666 0.06159 0 0.12318-0.014 0.18549-0.014h0.12318c0.01522 0 0 0 0 0h0.06159a2.9316 2.6971 0 0 1 1.1731 0.32664c0.49343 0.25531 0.91006 0.63861 1.1571 1.1072 0.12318 0.22731 0.21592 0.48263 0.26229 0.7526 0.01522 0.07066 0.01522 0.12799 0.03115 0.19865v0.3693c0 0.07066-0.01522 0.14199-0.01522 0.21265-0.01522 0.07066-0.01522 0.14199-0.03115 0.21265l-0.04637 0.21265c-0.01522 0.07066-0.09275 0.26998-0.13912 0.41196-0.04637 0.14199-0.2623 0.52529-0.44778 0.7526a3.7417 3.4424 0 0 1-1.4506 1.0932c-0.29345 0.11332-0.58618 0.21265-0.89485 0.25531a2.3338 2.1472 0 0 1-0.463 0.04266h-0.23114c0.015217 0 0 0 0 0h-0.015217c-0.076804 0-0.16955 0-0.24708-0.014-0.33982-0.02867-0.66371-0.08533-0.98759-0.17065-0.32388-0.08533-0.63255-0.19865-0.926-0.34064a5.0401 4.6369 0 0 1-1.5274-1.1639c-0.20071-0.24131-0.38547-0.49662-0.53981-0.7666-0.15433-0.26998-0.26229-0.55395-0.35504-0.83726a3.9772 3.659 0 0 1-0.15433-0.87993v-0.43996c0-0.14199 0.015216-0.29798 0.046372-0.45396 0.015217-0.15599 0.046373-0.29797 0.076805-0.45396 0.030432-0.15599 0.076805-0.29797 0.12318-0.45396 0.046372-0.15599 0.20071-0.58195 0.33982-0.85193 0.27751-0.53929 0.63255-1.0219 1.0492-1.4052 0.10797-0.099325 0.21592-0.18465 0.33982-0.26998 0.046369-0.042663 0.15433-0.12799 0.27751-0.19865 0.12318-0.070661 0.24708-0.14199 0.38547-0.19865 0.061586-0.028664 0.12318-0.056662 0.20071-0.085326 0.031163-0.013999 0.061586-0.028664 0.10797-0.042663 0.031163-0.013999 0.061586-0.028664 0.10797-0.042663 0.13912-0.056662 0.27751-0.099325 0.41663-0.14199 0.031152-0.013999 0.076804-0.013999 0.10797-0.028664 0.031152-0.014665 0.076804-0.013999 0.10796-0.028664 0.031152-0.014666 0.13912-0.028664 0.21592-0.056662 0.031152-0.013999 0.076804-0.013999 0.10797-0.028664 0.031152 0 0.076804-0.013999 0.10797-0.013999 0.031152 0 0.076804-0.013999 0.10796-0.013999l0.12318-0.028664c0.031152 0 0.076804-0.013999 0.10797-0.013999 0.046369 0 0.076804-0.013999 0.12318-0.013999 0.031152 0 0.092749-0.013999 0.12318-0.013999 0.030435 0 0.046369 0 0.076804-0.013999h0.10797c0.046369 0 0.076804 0 0.12318-0.013999h0.061586s0.015217 0 0 0h0.57096c0.27751 0.013999 0.55575 0.042663 0.81804 0.085326a5.2415 4.8223 0 0 1 1.481 0.45396 5.5618 5.1169 0 0 1 1.2035 0.72394c0.01522 0.013999 0.04637 0.028664 0.06159 0.056662 0.01522 0.013999 0.04637 0.028664 0.06159 0.056662 0.04637 0.028664 0.0768 0.070661 0.12318 0.099325 0.04637 0.028664 0.0768 0.070661 0.12318 0.099325 0.03115 0.042663 0.0768 0.070661 0.10797 0.11332a5.7096 5.2529 0 0 1 1.0187 1.3199c0.01522 0.014 0.01522 0.02867 0.03115 0.05666 0.01522 0.014 0.01522 0.02867 0.03116 0.05666 0.01595 0.028 0.03115 0.07066 0.06159 0.09932 0.01522 0.02867 0.03115 0.07066 0.04637 0.09933s0.03115 0.07066 0.04637 0.09933c0.06159 0.12799 0.10797 0.25531 0.15433 0.3833 0.0768 0.19865 0.12318 0.3693 0.16955 0.51129a0.14781 0.13599 0 0 0 0.13912 0.09933c0.076795-4e-7 0.12317-0.05666 0.12317-0.12799-0.015217-0.17065-0.015217-0.35464-0.031152-0.56795z" stroke-width=".69499"/>
</svg>
