<svg version="1.1" viewBox="0 0 16 16" xmlns="http://www.w3.org/2000/svg">
 <g id="icon" >
  <path d="m8.0007 13.525 6.1867-0.01823 0.59119-2.801 1.2215 0.04037v4.473l-16 0.0013v-4.4743l1.2228-0.04037 0.59119 2.801z" stroke-width=".13022"/>
  <path d="m12.373 0.15635-1.5042 1.5042c-0.804-0.47322-1.7504-0.72191-2.7403-0.72191-3.0494 0-5.541 2.4723-5.541 5.5435v0.12313h1.2144c0-0.041044-0.021729-0.08209-0.021729-0.12313 0-2.3903 1.9581-4.3266 4.3483-4.3266 0.65913 0 1.2772 0.14486 1.8325 0.41286l-1.1951 1.1951h3.6047v-3.6071zm0 5.9346c0 0.041044 0.02172 0.08209 0.02172 0.12313 0 2.3903-1.9581 4.3266-4.3483 4.3266-0.65913 0-1.2772-0.14486-1.8325-0.41286l1.1951-1.2144h-3.6071v3.6047l1.5042-1.5042c0.80399 0.47322 1.7504 0.74122 2.7403 0.74122 3.0494 0 5.541-2.4723 5.541-5.541v-0.12313h-1.2144z" stroke-width=".024144"/>
 </g>
</svg>
