<svg
   xmlns="http://www.w3.org/2000/svg"
   viewBox="0 0 16 16"
   height="16"
   width="16">
  <path
     d="M 5,7.25 A 3.75,3.75 0 1 0 8.75,11 3.75,3.75 0 0 0 5,7.25 Z m 0,5.5 A 1.75,1.75 0 1 1 6.75,11 1.75,1.75 0 0 1 5,12.75 Z" />
  <path
     d="M 6,7.645 5.75,6 H 4.25 L 4,7.645 a 3.5,3.5 0 0 1 2,0 z M 4,14.355 4.25,16 h 1.5 L 6,14.355 a 3.5,3.5 0 0 1 -2,0 z m 4.08,-5.02 1,-1.34 -1.08,-1.06 -1.34,1 A 3.5,3.5 0 0 1 8.075,9.35 Z M 1.92,12.665 0.935,14 2,15.065 l 1.34,-1 A 3.5,3.5 0 0 1 1.925,12.65 Z M 8.355,12 10,11.75 v -1.5 L 8.355,10 a 3.5,3.5 0 0 1 0,2 z M 1.645,10 0,10.25 v 1.5 L 1.645,12 a 3.5,3.5 0 0 1 0,-2 z m 5.02,4.08 1.34,1 1.06,-1.08 -1,-1.34 A 3.5,3.5 0 0 1 6.65,14.075 Z M 3.335,7.92 2,6.935 0.935,8 l 1,1.34 a 3.5,3.5 0 0 1 1.4,-1.42 z" />
  <path
     d="m 12,1 a 3,3 0 1 0 3,3 3,3 0 0 0 -3,-3 z m 0,4.4 A 1.4,1.4 0 1 1 13.4,4 1.4,1.4 0 0 1 12,5.4 Z" />
  <path
     d="M 12.8,1.316 12.6,0 h -1.2 l -0.2,1.316 a 2.8,2.8 0 0 1 1.6,0 z M 11.2,6.684 11.4,8 h 1.2 l 0.2,-1.316 a 2.8,2.8 0 0 1 -1.6,0 z m 3.264,-4.016 0.8,-1.072 -0.864,-0.848 -1.072,0.8 A 2.8,2.8 0 0 1 14.46,2.68 Z M 9.536,5.332 8.748,6.4 9.6,7.252 10.672,6.452 A 2.8,2.8 0 0 1 9.54,5.32 Z M 14.684,4.8 16,4.6 V 3.4 L 14.684,3.2 a 2.8,2.8 0 0 1 0,1.6 z M 9.316,3.2 8,3.4 v 1.2 l 1.316,0.2 a 2.8,2.8 0 0 1 0,-1.6 z m 4.016,3.264 1.072,0.8 0.848,-0.864 -0.8,-1.072 A 2.8,2.8 0 0 1 13.32,6.46 Z M 10.668,1.536 9.6,0.748 8.748,1.6 l 0.8,1.072 a 2.8,2.8 0 0 1 1.12,-1.136 z" />
</svg>
