<svg width="16" height="16" viewBox="0 0 16 16" xmlns="http://www.w3.org/2000/svg">
 <path id="icon" d="m16 8.0003-1.7774-1.0264v0.73221h-9.0848l1.7689-1.8689c0.15054-0.12066 0.34751-0.20531 0.55013-0.21 0.81966 0 1.3064-2.1e-4 1.4856-5.7e-4 0.12145 0.34602 0.44768 0.59577 0.83551 0.59577 0.49062 0 0.88879-0.39813 0.88879-0.88893 0-0.49102-0.39813-0.889-0.88879-0.889-0.38783 0-0.71406 0.24961-0.83551 0.59534l-1.4682-2.5e-4c-0.39791 0-0.81487 0.21832-1.0802 0.47425 7e-3 -8e-3 0.0148-0.0157-4.3e-4 1.5e-4 -6e-3 6e-3 -1.8768 1.9826-1.8768 1.9826-0.15023 0.12049-0.34709 0.2046-0.54956 0.20944h-1.0277c-0.13622-0.67893-0.73576-1.1904-1.4549-1.1904-0.81995 0-1.4846 0.66465-1.4846 1.4843 0 0.81995 0.66465 1.4846 1.4846 1.4846 0.71931 0 1.3188-0.51194 1.4551-1.1914h1.0097c3e-3 0 5e-3 1.42e-4 8e-3 0h2.2333c0.20208 0.0052 0.39869 0.08937 0.54877 0.21 0 0 1.8707 1.9761 1.8765 1.9825 0.015 0.01588 8e-3 0.0076 1.4e-4 1.41e-4 0.26539 0.2559 0.68252 0.47407 1.0805 0.47407l1.4149-3.2e-4v0.59595h1.7779v-1.7777h-1.7779v0.59517s-0.37266-6.75e-4 -1.4322-6.75e-4c-0.20265-0.0047-0.39983-0.08919-0.5503-0.20986l-1.7693-1.8692h6.8631v0.73338z"/>
</svg>
