<svg width="16" height="16" viewBox="0 0 16 16" xmlns="http://www.w3.org/2000/svg">
 <g id="icon">
  <path d="m5 7.25a3.75 3.75 0 1 0 3.75 3.75 3.75 3.75 0 0 0-3.75-3.75zm0 5.5a1.75 1.75 0 1 1 1.75-1.75 1.75 1.75 0 0 1-1.75 1.75z"/>
  <path d="m6 7.645-0.25-1.645h-1.5l-0.25 1.645a3.5 3.5 0 0 1 2 0zm-2 6.71 0.25 1.645h1.5l0.25-1.645a3.5 3.5 0 0 1-2 0zm4.08-5.02 1-1.34-1.08-1.06-1.34 1a3.5 3.5 0 0 1 1.415 1.415zm-6.16 3.33-0.985 1.335 1.065 1.065 1.34-1a3.5 3.5 0 0 1-1.415-1.415zm6.435-0.665 1.645-0.25v-1.5l-1.645-0.25a3.5 3.5 0 0 1 0 2zm-6.71-2-1.645 0.25v1.5l1.645 0.25a3.5 3.5 0 0 1 0-2zm5.02 4.08 1.34 1 1.06-1.08-1-1.34a3.5 3.5 0 0 1-1.415 1.415zm-3.33-6.16-1.335-0.985-1.065 1.065 1 1.34a3.5 3.5 0 0 1 1.4-1.42z"/>
  <path d="m12 1a3 3 0 1 0 3 3 3 3 0 0 0-3-3zm0 4.4a1.4 1.4 0 1 1 1.4-1.4 1.4 1.4 0 0 1-1.4 1.4z"/>
  <path d="m12.8 1.316-0.2-1.316h-1.2l-0.2 1.316a2.8 2.8 0 0 1 1.6 0zm-1.6 5.368 0.2 1.316h1.2l0.2-1.316a2.8 2.8 0 0 1-1.6 0zm3.264-4.016 0.8-1.072-0.864-0.848-1.072 0.8a2.8 2.8 0 0 1 1.132 1.132zm-4.928 2.664-0.788 1.068 0.852 0.852 1.072-0.8a2.8 2.8 0 0 1-1.132-1.132zm5.148-0.532 1.316-0.2v-1.2l-1.316-0.2a2.8 2.8 0 0 1 0 1.6zm-5.368-1.6-1.316 0.2v1.2l1.316 0.2a2.8 2.8 0 0 1 0-1.6zm4.016 3.264 1.072 0.8 0.848-0.864-0.8-1.072a2.8 2.8 0 0 1-1.132 1.132zm-2.664-4.928-1.068-0.788-0.852 0.852 0.8 1.072a2.8 2.8 0 0 1 1.12-1.136z"/>
 </g>
</svg>
