<svg xmlns="http://www.w3.org/2000/svg" viewBox="0 0 16 16" height="16" width="16">
  <path d="m 16,8.0003175 -1.7774,-1.026437 v 0.73221 H 5.1378 l 1.76891,-1.868875 c 0.15054,-0.12066 0.34751,-0.20531 0.55013,-0.21 0.81966,0 1.30642,-2.1e-4 1.48559,-5.7e-4 0.12145,0.34602 0.44768,0.595772 0.83551,0.595772 0.49062,0 0.88879,-0.398132 0.88879,-0.888932 0,-0.49102 -0.39813,-0.889 -0.88879,-0.889 -0.38783,0 -0.71406,0.24961 -0.83551,0.59534 l -1.46819,-2.5e-4 c -0.39791,0 -0.81487,0.21832 -1.08025,0.47425 0.007,-0.008 0.0148,-0.0157 -4.3e-4,1.5e-4 -0.006,0.006 -1.87675,1.982608 -1.87675,1.982608 -0.15023,0.12049 -0.34709,0.204605 -0.54956,0.209436 H 2.93953 C 2.80331,7.0270925 2.20377,6.5155785 1.4846,6.5155785 0.66465,6.5155785 0,7.1802265 0,7.9999265 c 0,0.819949 0.66465,1.484633 1.4846,1.484633 0.71931,0 1.31885,-0.51194 1.45508,-1.191436 h 1.0097 c 0.003,0 0.005,1.42e-4 0.008,0 h 2.23329 c 0.20208,0.0052 0.39869,0.08937 0.54877,0.210005 0,0 1.87072,1.9761475 1.87651,1.9825415 0.015,0.01588 0.008,0.0076 1.4e-4,1.41e-4 0.26539,0.255899 0.68252,0.474074 1.0805,0.474074 l 1.41491,-3.2e-4 v 0.59595 h 1.77786 V 9.7778275 H 11.1115 v 0.5951675 c 0,0 -0.37266,-6.75e-4 -1.43224,-6.75e-4 -0.20265,-0.0047 -0.39983,-0.08919 -0.5503,-0.209863 L 7.35965,8.2932305 h 6.86313 v 0.733382 z" />
</svg>
