<svg width="16" height="16" viewBox="0 0 16 16" xmlns="http://www.w3.org/2000/svg">
 <g id="icon">
  <path d="m9.6528 15.962c-0.32475-0.07869-0.58853-0.35831-0.64024-0.6787-0.0242-0.15011-0.0241-6.44 1.8e-4 -6.5737 0.0595-0.32811 0.34244-0.61528 0.66642-0.67634 0.0561-0.01057 0.72504-0.01658 1.8459-0.01658 1.9177 0 1.8482-0.0032 2.033 0.09338 0.12013 0.06279 2.269 2.2109 2.3416 2.3408 0.10478 0.18735 0.10036 0.07566 0.10036 2.5381 0 2.4574 5e-3 2.3368-0.0994 2.5429-0.0661 0.13086-0.22282 0.28763-0.35368 0.35369-0.20817 0.10508-0.0336 0.09947-3.0573 0.09821-2.1616-9.01e-4 -2.7698-0.0056-2.8369-0.02183zm5.3516-3.0016v-2.029l-1.919-1.9188-3.086 0.0084-4e-3 2.9638c-2e-3 1.6301-7e-4 2.973 4e-3 2.9842 6e-3 0.01621 0.52257 0.02041 2.5067 0.02041h2.4989zm-13.3-0.6173c-0.43928-0.03839-0.8363-0.22375-1.1521-0.53789-0.29991-0.29833-0.48658-0.6786-0.53719-1.0943-0.014-0.11486-0.0174-1.3141-0.0132-4.6293 5e-3 -4.1031 8e-3 -4.4831 0.0328-4.5804 0.0709-0.27788 0.19275-0.54326 0.33769-0.73566 0.10121-0.13435 0.30732-0.3322 0.43977-0.42215 0.22934-0.15574 0.55024-0.2772 0.82258-0.31135 0.0896-0.01123 1.8762-0.01679 5.3764-0.01673 5.7511 9.8e-5 5.4005-0.0059 5.7082 0.09723 0.59382 0.19895 1.0507 0.68642 1.2208 1.3025l0.0441 0.15966 4e-3 2.4645c5e-3 2.7567 0.0137 2.5506-0.11352 2.695-0.18639 0.21175-0.51567 0.22964-0.71427 0.03881-0.0389-0.03742-0.0901-0.10911-0.11361-0.15931l-0.0428-0.09126-0.016-4.8336-0.0392-0.09798c-0.11777-0.29453-0.3693-0.50804-0.6619-0.56187-0.0687-0.01264-1.6068-0.01774-5.2908-0.01754-5.7206 3.12e-4 -5.3117-0.0072-5.5286 0.10161-0.14295 0.0717-0.30242 0.2324-0.37238 0.37524-0.10884 0.22225-0.10202-0.11105-0.0973 4.7523l4e-3 4.4131 0.0347 0.0906c0.1053 0.2747 0.27682 0.45514 0.53221 0.55987l0.0862 0.03537 5.8296 0.0164 0.0912 0.04278c0.10569 0.04956 0.19513 0.13312 0.24746 0.23117 0.0308 0.05765 0.0368 0.09442 0.0368 0.2241 0 0.12967-6e-3 0.16645-0.0368 0.2241-0.0523 0.09806-0.14177 0.18161-0.24746 0.23117l-0.0912 0.04278-2.8168 0.0019c-1.5493 0.0011-2.883-0.0039-2.9638-0.01093zm-0.0244-4.1263c-0.10244-0.03614-0.24736-0.18403-0.28298-0.28877-0.0151-0.04426-0.0274-0.12943-0.0274-0.18926 0-0.21484-0.0805-0.12472 1.6936-1.8956 1.298-1.2955 1.612-1.6009 1.6784-1.6319 0.0626-0.02922 0.11026-0.03817 0.20412-0.03832 0.22563-3.39e-4 0.18707-0.03288 1.2257 1.0342l0.92162 0.94688 0.31843-0.31378c0.17513-0.17258 0.8861-0.87962 1.5799-1.5712l1.2615-1.2574-2.3924-0.0164-0.0912-0.04278c-0.17938-0.08413-0.27637-0.2239-0.28894-0.41642-0.011-0.168 0.0256-0.26659 0.14192-0.38282 0.15861-0.15844-0.0393-0.14592 2.3071-0.14592h2.0549l-8e-3 4.1396-0.0385 0.07348c-0.0527 0.10071-0.14173 0.19056-0.23913 0.24139-0.11526 0.06015-0.30646 0.06233-0.42331 0.0048-0.10255-0.05047-0.19899-0.14691-0.24376-0.24376-0.0347-0.07499-0.0352-0.09078-0.0433-1.2951l-8e-3 -1.2192-1.8048 1.7922c-1.7304 1.7183-1.8088 1.7938-1.9024 1.8291-0.13416 0.05063-0.29315 0.04175-0.41214-0.02301-0.062-0.03374-0.28654-0.25329-0.86436-0.84512-0.42935-0.43975-0.84063-0.86316-0.91396-0.94092l-0.13333-0.14137-1.4016 1.3982c-1.334 1.3308-1.4062 1.3999-1.4961 1.4329-0.11284 0.04138-0.26391 0.0439-0.3708 0.0062z"/>
  <g>
   <rect x="10.356" y="11.525" width="4.2373" height=".98305" ry=".49153"/>
   <rect x="10.356" y="13.017" width="4.2373" height=".98305" ry=".49153"/>
   <rect x="10.356" y="10.034" width="2.4068" height=".98305" rx=".44068" ry=".49153" stroke-width=".75366"/>
  </g>
 </g>
</svg>
