<svg version="1.1" viewBox="0 0 16 16" xmlns="http://www.w3.org/2000/svg">
<g id="icon" transform="matrix(.016326 0 0 .016326 -.16321 -.16317)"><g id="g20" transform="matrix(.1 0 0 -.1 0 511)"><path id="path4" d="m234 4052.3c-143.4-112.3-133.9 98-133.9-3324.7 0-2939.9 2.4-3143.1 43-3222 86-176.9-33.5-167.3 2246.8-167.3h2036.4v-427.8l-941.7-7.2c-1130.6-9.6-1032.6 21.5-1166.4-356.1-93.2-265.3-107.6-353.8-62.1-399.2 40.6-40.6 5447.2-40.6 5487.8 0 45.4 45.4 31.1 133.8-62.1 399.2-133.9 377.6-35.9 346.6-1166.4 356.1l-941.7 7.2v427.8h2038.8c2277.8 0 2158.3-9.6 2244.4 167.3 40.6 78.9 43 282 43 3222 0 3422.7 9.6 3212.4-133.8 3324.7l-64.5 50.2h-9403.1zm9063.5-3085.7-7.2-2540.8h-8580.7l-7.2 2540.8-4.8 2538.4h8604.7zm-3929.4-2949.5c40.6-38.3 50.2-145.8 19.1-193.6-33.5-55-153-78.9-387.2-78.9-325.1 0-406.3 33.5-406.3 172.1 0 124.3 43 138.6 406.3 138.6 270.1 0 339.4-7.1 368.1-38.2z"/><path id="path6" d="m1971.6 3074.7c-105.2-43-124.3-164.9-40.6-251 55-52.6 1350.4-52.6 1405.4 0 86 88.4 64.5 210.3-47.8 251-76.5 28.7-1245.3 28.7-1317 0z"/><path id="path8" d="m4593.7 3067.5c-76.5-38.2-95.6-167.3-33.5-234.2 40.6-43 100.4-45.4 1814.2-45.4 1732.9 0 1773.5 0 1816.5 47.8 52.6 57.4 55 160.1 2.4 210.3-35.8 38.2-196 40.6-1790.2 45.4-1374.4 4.8-1761.6 0-1809.4-23.9z"/><path id="path10" d="m1880.8 1724.3-59.8-57.4v-1740l55-50.2c55-52.6 64.5-52.6 970.4-52.6h913.1l57.4 59.8 59.8 57.4v838.9c0 903.5-7.2 956.1-124.3 989.5-31.1 7.2-451.7 14.3-934.6 14.3h-879.6z"/><path id="path12" d="m4574.6 1721.9c-35.9-23.9-52.6-59.8-52.6-117.1 0-162.5-90.8-155.4 1854.8-155.4 1651.6 0 1752 2.4 1802.2 43 33.5 26.3 55 69.3 55 112.3s-21.5 86-55 112.3c-50.2 40.6-150.6 43-1802.2 43-1544.1 0.1-1754.4-4.7-1802.2-38.1z"/><path id="path14" d="m4562.6 1143.5c-50.2-55-52.6-179.3-4.8-219.9 55-45.4 3587.7-43 3633.1 2.4 55 57.4 55 167.3-2.4 222.3-33.5 33.5-229.5 38.2-1811.8 38.2-1689.8 0-1778.2-2.4-1814.1-43z"/><path id="path16" d="m4565 586.5c-28.7-14.3-43-52.6-43-105.2 0-164.9-117.1-155.4 1847.6-155.4 975.2 0 1785.5 9.6 1799.8 19.1 62.2 40.6 83.7 121.9 52.6 191.2l-31.1 64.5-1792.6 4.8c-1188 4.9-1807-2.2-1833.3-19z"/><path id="path18" d="m4677.3-175.9c-198.4-81.3-246.2-363.3-83.7-506.7l71.7-66.9h1453.3l74.1 62.1c40.6 33.5 86.1 100.4 100.4 150.6 23.9 76.5 19.1 107.6-21.5 198.4-78.9 181.7-107.6 186.4-882 184.1-365.7-0.1-686-9.7-712.3-21.6z"/></g></g>
</svg>
