<svg xmlns="http://www.w3.org/2000/svg" viewBox="0 0 16 16" height="16" width="16">
  <path
     d="m 9.652822,15.962197 c -0.32475,-0.07869 -0.58853,-0.358312 -0.64024,-0.678704 -0.0242,-0.150114 -0.0241,-6.4399821 1.8e-4,-6.5736921 0.0595,-0.328109 0.34244,-0.615282 0.66642,-0.676342 0.0561,-0.01057 0.72504,-0.01658 1.84588,-0.01658 1.91766,0 1.84824,-0.0032 2.033,0.09338 0.12013,0.06279 2.26895,2.2108651 2.34163,2.3408191 0.10478,0.18735 0.10036,0.07566 0.10036,2.538127 0,2.457391 0.005,2.336759 -0.0994,2.542927 -0.0661,0.130864 -0.22282,0.287627 -0.35368,0.353687 -0.20817,0.105082 -0.0336,0.09947 -3.05731,0.09821 -2.16163,-9.01e-4 -2.76982,-0.0056 -2.83688,-0.02183 z m 5.35162,-3.001622 v -2.028988 l -0.95949,-0.9593881 -0.95949,-0.959388 -1.543,0.0042 -1.543,0.0042 -0.004,2.9637971 c -0.002,1.630089 -7e-4,2.972984 0.004,2.98421 0.006,0.01621 0.52257,0.02041 2.50668,0.02041 h 2.49892 z m -4.36665,1.02353 c -0.19671,-0.07207 -0.32279,-0.254227 -0.32279,-0.466353 0,-0.201614 0.10556,-0.365055 0.29681,-0.459574 l 0.0735,-0.03632 h 1.73093 c 1.64283,0 1.73466,0.0015 1.8044,0.03003 0.19096,0.07803 0.31314,0.259119 0.31314,0.4641 0,0.153823 -0.0459,0.257857 -0.15958,0.361765 -0.15473,0.14142 -0.0168,0.13219 -1.95679,0.130889 -1.44643,-9.69e-4 -1.72579,-0.0048 -1.7796,-0.02454 z m 0.0851,-1.476812 c -0.0966,-0.0166 -0.23154,-0.08925 -0.28648,-0.154187 -0.1326,-0.156728 -0.16014,-0.374353 -0.0704,-0.556572 0.0579,-0.117601 0.11696,-0.173986 0.24585,-0.234686 l 0.0898,-0.0423 h 1.72276 1.72276 l 0.0898,0.0423 c 0.1289,0.0607 0.18796,0.117085 0.24586,0.234686 0.0428,0.08684 0.051,0.122435 0.051,0.221066 0,0.09863 -0.008,0.134226 -0.051,0.221067 -0.0579,0.1176 -0.11696,0.173986 -0.24586,0.234686 l -0.0898,0.0423 -1.67377,0.0024 c -0.92057,0.0013 -1.7083,-0.0035 -1.7505,-0.01077 z m -0.0306,-1.50775 c -0.10247,-0.02813 -0.21822,-0.09874 -0.26724,-0.16301 -0.19746,-0.258877 -0.12368,-0.615279 0.1586,-0.766111 l 0.069,-0.03685 h 0.87362 0.87363 l 0.069,0.03685 c 0.17028,0.09099 0.26867,0.25511 0.26867,0.448153 0,0.09987 -0.008,0.131799 -0.0545,0.223383 -0.0584,0.114481 -0.15939,0.206472 -0.27212,0.247873 -0.0851,0.03125 -1.60877,0.03986 -1.71858,0.0097 z m -8.98822,1.343792 c -0.43928,-0.03839 -0.83630002,-0.223749 -1.15209002,-0.537886 -0.29991,-0.298332 -0.48658,-0.678601 -0.53719,-1.094315 -0.013999995,-0.11486 -0.0174,-1.3141461 -0.0132,-4.6292941 0.005,-4.103101 0.008,-4.483078 0.0328,-4.580415 0.0709,-0.277879 0.19275,-0.54325796 0.33769,-0.73565996 0.10121,-0.134352 0.30732,-0.332205 0.43977,-0.422146 0.22934002,-0.15574 0.55024002,-0.277203 0.82258002,-0.311352 0.0896,-0.01123 1.87617,-0.01679 5.37636,-0.01673 5.75109,9.8e-5 5.40051,-0.0059 5.70824,0.09723 0.59382,0.19895 1.05072,0.686418 1.22078,1.30247796 l 0.0441,0.159659 0.004,2.464536 c 0.005,2.756655 0.0137,2.550562 -0.11352,2.69505 -0.18639,0.211749 -0.51567,0.229641 -0.71427,0.03881 -0.0389,-0.03742 -0.0901,-0.109112 -0.11361,-0.159306 l -0.0428,-0.09126 -0.008,-2.416761 -0.008,-2.416761 -0.0392,-0.09798 c -0.11777,-0.294531 -0.3693,-0.508045 -0.6619,-0.561872 -0.0687,-0.01264 -1.60677,-0.01774 -5.29075,-0.01754 -5.7206,3.12e-4 -5.31167,-0.0072 -5.52861,0.101608 -0.14295,0.0717 -0.30242,0.232399 -0.37238,0.375235 -0.10884002,0.222253 -0.10202002,-0.11105 -0.0973,4.752322 l 0.004,4.4131001 0.0347,0.0906 c 0.1053,0.274702 0.27682,0.455139 0.53221,0.559873 l 0.0862,0.03537 2.91481,0.0082 2.91481,0.0082 0.0912,0.04278 c 0.10569,0.04956 0.19513,0.133115 0.24746,0.231172 0.0308,0.05765 0.0368,0.09442 0.0368,0.224097 0,0.129673 -0.006,0.166447 -0.0368,0.224096 -0.0523,0.09806 -0.14177,0.18161 -0.24746,0.231172 l -0.0912,0.04278 -2.81683,0.0019 c -1.54926,0.0011 -2.88297,-0.0039 -2.9638,-0.01093 z m -0.0244,-4.1263191 c -0.10244,-0.03614 -0.24736,-0.184034 -0.28298,-0.288773 -0.0151,-0.04426 -0.0274,-0.129429 -0.0274,-0.189263 0,-0.214843 -0.0805,-0.124715 1.69363,-1.895555 1.29796,-1.295528 1.61203,-1.600897 1.6784,-1.631892 0.0626,-0.02922 0.11026,-0.03817 0.20412,-0.03832 0.22563,-3.39e-4 0.18707,-0.03288 1.2257,1.034213 l 0.92162,0.946877 0.31843,-0.313775 c 0.17513,-0.172577 0.8861,-0.879618 1.57992,-1.571204 l 1.2615,-1.257427 -1.19618,-0.0082 -1.19618,-0.0082 -0.0912,-0.04278 c -0.17938,-0.08413 -0.27637,-0.223896 -0.28894,-0.41642 -0.011,-0.167997 0.0256,-0.266592 0.14192,-0.382816 0.15861,-0.158436 -0.0393,-0.145916 2.30714,-0.145916 h 2.05491 l -0.004,2.069759 -0.004,2.06976 -0.0385,0.07348 c -0.0527,0.100712 -0.14173,0.190558 -0.23913,0.241386 -0.11526,0.06015 -0.30646,0.06233 -0.42331,0.0048 -0.10255,-0.05047 -0.19899,-0.146913 -0.24376,-0.243765 -0.0347,-0.07499 -0.0352,-0.09078 -0.0433,-1.295096 l -0.008,-1.219178 -1.80478,1.792235 c -1.73035,1.718311 -1.80882,1.793753 -1.90239,1.82906 -0.13416,0.05063 -0.29315,0.04175 -0.41214,-0.02301 -0.062,-0.03374 -0.28654,-0.253288 -0.86436,-0.845123 -0.42935,-0.439749 -0.84063,-0.863161 -0.91396,-0.940915 l -0.13333,-0.141372 -1.40164,1.39825 c -1.334,1.330777 -1.4062,1.399922 -1.49614,1.43291 -0.11284,0.04138 -0.26391,0.0439 -0.3708,0.0062 z"/>
</svg>
