<svg version="1.1" viewBox="0 0 16 16" xmlns="http://www.w3.org/2000/svg">
  <g id="icon">
    <g transform="matrix(.035714 0 0 .035714 -1.1429 0)">
      <path id="path2" d="m336 128c8.844 0 16-7.156 16-16v-32c0-8.844-7.156-16-16-16-8.828 0-16 7.156-16 16v32c0 4.422 1.797 8.422 4.688 11.328 2.906 2.891 6.89 4.672 11.312 4.672z"/>
      <path id="path4" d="m400 160c8.844 0 16-7.156 16-16v-96c0-8.844-7.156-16-16-16-8.828 0-16 7.156-16 16v96c0 4.422 1.797 8.422 4.688 11.328 2.906 2.891 6.89 4.672 11.312 4.672z"/>
      <path id="path6" d="m464 192c8.844 0 16-7.156 16-16v-160c0-8.844-7.156-16-16-16-8.828 0-16 7.156-16 16v160c0 4.422 1.797 8.422 4.688 11.328 2.906 2.891 6.89 4.672 11.312 4.672z"/>
      <path id="path8" d="m176 128c4.422 0 8.406-1.781 11.313-4.672 2.89-2.906 4.687-6.906 4.687-11.328v-32c0-8.844-7.172-16-16-16-8.844 0-16 7.156-16 16v32c0 8.844 7.156 16 16 16z"/>
      <path id="path10" d="m112 160c4.422 0 8.406-1.781 11.313-4.672 2.89-2.906 4.687-6.906 4.687-11.328v-96c0-8.844-7.172-16-16-16-8.844 0-16 7.156-16 16v96c0 8.844 7.156 16 16 16z"/>
      <path id="path12" d="m48 192c4.422 0 8.406-1.781 11.313-4.672 2.89-2.906 4.687-6.906 4.687-11.328v-160c0-8.844-7.172-16-16-16-8.844 0-16 7.156-16 16v160c0 8.844 7.156 16 16 16z"/>
    </g>
    <path d="m15 8.5h-4.5c0-0.55231-0.44775-1-1-1h-0.5v-6c0-0.55225-0.44775-1-1-1s-1 0.44775-1 1v6h-0.5c-0.55225 0-1 0.44769-1 1h-4.5c-0.55225 0-1 0.44769-1 1v5c0 0.55231 0.44775 1 1 1h14c0.55225 0 1-0.44769 1-1v-5c0-0.55231-0.44775-1-1-1zm-1 5h-12v-3h12z" stroke-width=".03125"/>
    <g transform="matrix(.025 0 0 .025 .40633 1.9378)">
      <circle id="circle16" cx="128" cy="402" r="32"/>
      <circle id="circle18" cx="224" cy="402" r="32"/>
    </g>
  </g>
</svg>
