<svg version="1.1" viewBox="0 0 16 16" xmlns="http://www.w3.org/2000/svg"><g id="icon" transform="matrix(.13024 0 0 .13024 1.475e-8 .56785)"><path d="m23.2 29.44v-28.91c0-0.29 0.24-0.53 0.53-0.53h60.108c0.09 0 0.17 0.02 0.24 0.06l1.93 0.8-0.2 0.49 0.2-0.49c0.08 0.03 0.14 0.08 0.2 0.14l10.632 10.462 0.84 0.83-0.37 0.38 0.37-0.38c0.1 0.1 0.16 0.24 0.16 0.38v16.788c0 0.29-0.24 0.53-0.53 0.53h-7.908c-0.29 0-0.53646-0.24007-0.53-0.53v-4.582h-14.87c-0.29 0-0.53-0.24-0.53-0.53v-15.36h-41.284v20.452c0 0.29-0.24 0.53-0.53 0.53h-7.938c-0.28 0-0.52-0.24-0.52-0.53zm7.76 38.41h60.97c0.04 0 0.08 0 0.12 0.01 0.83 0.02 1.63 0.19 2.36 0.49 0.79 0.33 1.51 0.81 2.11 1.41 0.59 0.59 1.07 1.31 1.4 2.1 0.3 0.73 0.47 1.52 0.49 2.35 0.01 0.04 0.01 0.08 0.01 0.12v6.942h10.862s0.07 0 0.11 0.01c0.57-0.01 1.13-0.14 1.64-0.35 0.57-0.24 1.08-0.59 1.51-1.02s0.78-0.94 1.02-1.51c0.21-0.51 0.34-1.07 0.35-1.65-0.01-0.03-0.01-0.1-0.01-0.1v-30.804s0-0.07 0.01-0.11c-0.01-0.57-0.14-1.13-0.35-1.64-0.24-0.56-0.59-1.08-1.02-1.51s-0.94-0.78-1.51-1.02c-0.51-0.22-1.07-0.34-1.65-0.35-0.03 0.01-0.1 0.04-0.1 0.01h-95.674s-0.08 0-0.11-0.01c-0.57 0.01-1.13 0.14-1.64 0.35-0.56 0.24-1.08 0.59-1.51 1.02s-0.78 0.94-1.02 1.51c-0.21 0.51-0.34 1.07-0.35 1.65 0.01 0.03 0.01 0.13 0.01 0.1v30.814s0 0.08-0.01 0.11c0.01 0.57 0.14 1.13 0.35 1.64 0.24 0.57 0.59 1.08 1.02 1.51s0.95 0.78 1.51 1.02c0.51 0.22 1.07 0.34 1.65 0.35 0.03-0.01 0.13-0.01 0.1-0.01h10.862v-6.942c0-0.04 0-0.08 0.01-0.12 0.02-0.83 0.19-1.63 0.49-2.35 0.31-0.76 0.77-1.45 1.33-2.03 0.02-0.03 0.04-0.06 0.07-0.08 0.59-0.59 1.31-1.07 2.1-1.4 0.73-0.3 1.52-0.47 2.36-0.49 0.04-0.02 0.08-0.02 0.13-0.02zm67.45 22.42v17.37c0 0.04 0 0.08-0.01 0.12-0.02 0.83-0.19 1.63-0.49 2.36-0.33 0.79-0.81 1.51-1.41 2.11-0.59 0.59-1.31 1.07-2.1 1.4-0.73 0.3-1.52 0.47-2.35 0.49-0.04 0.01-0.08 0.01-0.12 0.01h-60.97c-0.04 0-0.08-0.01-0.12-0.01-0.83-0.02-1.62-0.19-2.35-0.49-0.79-0.33-1.5-0.81-2.1-1.4-0.6-0.6-1.08-1.31-1.41-2.11-0.3-0.73-0.47-1.52-0.49-2.35-0.01-0.04-0.01-0.08-0.01-0.12v-17.38h-13.17c-0.04 0-0.08 0-0.12-0.01-1.49-0.02-2.91-0.32-4.2-0.85-1.39-0.57-2.63-1.41-3.67-2.45s-1.88-2.28-2.45-3.67c-0.54-1.3-0.84-2.71-0.85-4.2-0.02-0.05-0.02-0.09-0.02-0.13v-35.41c0-0.04 0-0.08 0.01-0.12 0.02-1.49 0.32-2.9 0.85-4.2 0.57-1.39 1.41-2.63 2.45-3.67s2.28-1.88 3.67-2.45c1.3-0.54 2.71-0.84 4.2-0.85 0.04-0.01 0.08-0.01 0.12-0.01h100.25c0.04 0 0.08 0 0.12 0.01 1.49 0.02 2.91 0.32 4.2 0.85 1.39 0.57 2.63 1.41 3.67 2.45s1.88 2.28 2.45 3.67c0.54 1.3 0.84 2.71 0.85 4.2 0.01 0.04 0.01 0.08 0.01 0.12v35.41c0 0.04 0 0.08-0.01 0.12-0.02 1.49-0.32 2.9-0.85 4.2-0.57 1.39-1.41 2.63-2.45 3.67s-2.28 1.88-3.67 2.45c-1.3 0.54-2.71 0.84-4.2 0.85-0.04 0.01-0.08 0.01-0.12 0.01h-13.14zm-8.94-74.41-7-6.91v6.91zm-0.048 60.978h-55.964v28.294h55.964z"/></g></svg>
