<svg id="svg8" version="1.1" viewBox="0 0 16 16" xmlns="http://www.w3.org/2000/svg">
 <g id="icon" transform="matrix(.96047 0 0 .96047 -.13172 -.13211)">
  <path id="path2" transform="matrix(.15981 0 0 .17622 44.343 -1.775)" d="m-196.9 80.108c-0.36-0.115-0.477-0.23-0.261-0.253 0.215-0.025-0.18-0.22-0.877-0.434-1.831-0.562-3.61-2.416-4.245-4.423l-0.49-1.545-3.738-0.073c-2.087-0.04-3.7-0.177-3.654-0.309 0.247-0.689 3.298-3.779 4.037-4.087 0.698-0.292 3.895-0.36 17.049-0.36 10.619 0 16.189-0.09 16.189-0.26 0-0.144 0.117-0.262 0.261-0.262 0.338 0 0.338 3.914 0 4.437-0.169 0.261-0.254 0.283-0.257 0.065-2e-3 -0.197-0.21-0.12-0.526 0.196-0.498 0.498-0.87 0.522-7.966 0.522h-7.443l-0.273 0.718c-0.87 2.295-1.757 3.625-2.958 4.437-0.69 0.467-1.623 0.955-2.073 1.086-0.45 0.13-0.642 0.259-0.427 0.286 0.444 0.056-0.704 0.468-1.305 0.468-0.215 0-0.685-0.094-1.043-0.21zm-60.027-0.261 0.653-0.21-0.746-0.025c-1.412-0.05-3.958-0.842-6.17-1.922-1.77-0.863-2.673-1.535-4.459-3.313-1.858-1.85-2.449-2.653-3.464-4.71-1.593-3.225-2.086-5.563-1.917-9.084 0.07-1.48 0.186-2.749 0.256-2.819s0.91 0.01 1.865 0.176l1.739 0.303-0.166 2.124c-0.336 4.307 1.096 8.162 4.188 11.27 2.928 2.943 6.147 4.295 10.227 4.295 3.012 0 5.184-0.65 8.342-2.5l0.821-0.48 1.19 1.294 1.19 1.295-0.706 0.596c-1.736 1.466-6.636 3.404-8.787 3.475-0.774 0.025-0.777 0.03-0.14 0.235 0.418 0.134-0.282 0.209-1.958 0.209s-2.377-0.075-1.958-0.21z"/>
  <path id="path4" transform="matrix(.15981 0 0 .17622 44.343 -1.775)" d="m-240.22 72.981c-0.703-0.24-2.017-1.61-5.809-6.053-6.927-8.115-7.945-9.212-9.088-9.795-0.685-0.35-3.662-0.938-9.177-1.814-4.49-0.713-8.608-1.423-9.153-1.578-1.21-0.344-1.82-1.26-2.279-3.418-0.182-0.862-0.416-1.432-0.518-1.267-0.292 0.472-0.517-0.756-0.256-1.4 0.124-0.31 0.234-0.468 0.243-0.352 9e-3 0.115 1.26-1.646 2.78-3.915 2.952-4.407 4.812-6.45 6.139-6.741 0.517-0.114 0.706-0.254 0.508-0.376-0.51-0.316 1.234-0.452 3.378-0.265 1.386 0.121 1.652 0.193 0.913 0.245-0.574 0.04 0.835 0.23 3.132 0.421 6.697 0.558 16.039 1.854 18.138 2.517 0.535 0.168 1.516 0.918 2.365 1.808l1.452 1.52 5.595 0.798c21.53 3.067 40.868 7.36 48.135 10.685 3.532 1.617 7.721 5.85 9.757 9.86l0.563 1.11h-16.009c-17.269 0-17.482 0.015-19.496 1.393-0.502 0.343-1.976 1.844-3.275 3.335-1.299 1.49-2.767 2.915-3.262 3.166-0.818 0.415-1.951 0.455-12.384 0.442-8.182-0.01-11.744-0.104-12.392-0.326z"/>
  <path id="path6" transform="matrix(.15981 0 0 .17622 44.343 -1.775)" d="m-257.62 70.352c-2.412-0.788-4.61-2.793-5.713-5.21-0.548-1.201-0.698-1.935-0.708-3.467-7e-3 -1.069 0.11-2.066 0.26-2.215 0.385-0.386 6.126 0.507 7.111 1.107 0.421 0.256 2.241 2.19 4.044 4.297 2.438 2.85 3.208 3.915 3.006 4.159-1.06 1.278-5.764 2.06-8 1.33z"/>
 </g>
</svg>
