<svg width="64" height="64" enable-background="new 0 0 256 256" version="1.1" viewBox="0 0 64 64" xml:space="preserve" xmlns="http://www.w3.org/2000/svg">

<g transform="matrix(.2711 0 0 .2711 -2.7266 -2.6978)"><g><path d="m115.7 10.6c-20.6 2.2-41.9 10.6-59 23.4-5.4 4.1-14.8 13.2-19.6 18.8-8.4 10.1-17.1 25.7-21.2 38.3-9.4 28.7-7.4 60.2 5.6 87.2 11.8 24.6 29.6 42.8 53.8 55.1 27.8 14.1 59.7 16.4 90 6.5 35.1-11.6 63.1-39.6 74.8-74.8 12.7-38.6 5.1-79.9-20.5-111.6-16.6-20.5-41.8-35.9-67.5-41-12.3-2.4-24.8-3.1-36.4-1.9zm22.3 21.9c29.1 3.1 54.8 18.9 70.5 43.2 21.5 33.2 20.6 75.6-2.2 107.9-4.8 6.9-15.7 17.8-22.6 22.6-19.1 13.5-42.9 19.8-65.7 17.3-45.3-4.9-80.6-40.2-85.5-85.5-3.9-35.5 13-70.9 43.2-90.6 18.6-12 40.7-17.3 62.3-14.9z"/><path d="m124.1 55.2v8.7h7.8v-17.4h-7.8z"/><path d="m87.2 57.2c-1.6 1-3 2-3 2.3 0 0.6 2.4 4.8 6.6 11.9l1.9 3.2 3.2-1.9c1.7-1.1 3.1-2.2 3-2.6-0.3-1.2-8.1-14.5-8.5-14.5-0.2-0.1-1.7 0.7-3.2 1.6z"/><path d="m161.3 62.4c-2.2 3.8-4 7.3-4.2 7.6s1.2 1.6 2.9 2.6c2.9 1.8 3.1 1.9 3.8 1 1.3-1.7 8-13.5 8-14.1s-5.4-4-6.2-4c-0.2 0-2.1 3.1-4.3 6.9z"/><path d="m57.2 87.1c-0.9 1.6-1.7 3.1-1.7 3.3 0 0.4 13.3 8.2 14.5 8.5 0.4 0.1 1.6-1.3 2.6-3l1.9-3.2-3.2-1.9c-7-4.2-11.3-6.6-11.9-6.6-0.2 0-1.3 1.3-2.2 2.9z"/><path d="m188.7 88.4c-3.9 2.2-7 4.4-6.9 4.7 0.3 1.1 3.7 6.2 4 6.1 4.4-2.4 14.7-8.5 14.7-8.8 0-1-3.5-6.2-4.1-6.2-0.3 0-3.8 1.9-7.7 4.2z"/><path d="m96.5 87c0 0.4 2.6 11.6 5.9 25s5.9 24.7 5.9 25.1c0 0.5-0.5 1.9-1.1 3.3-1.7 3.7-2.1 9.1-1 13.4 4.4 17 25.1 22.8 37.4 10.5 8.6-8.6 8.8-22 0.5-31.1-2.6-2.8-8.8-6.2-12.6-6.7l-2.5-0.3-14.7-18.1c-17.3-21.4-17.8-21.9-17.8-21.1z"/><path d="m46.5 128v3.9h17.4v-7.8h-17.4z"/><path d="m192.1 128v3.9h17.4v-7.8h-17.4z"/><path d="m48.8 148.5c0 1.1 4.5 12.7 6.3 16.3 7.5 15.1 21.2 28.7 36.4 36.3 5.4 2.7 14.1 5.7 20.2 7.1 6.9 1.5 25.7 1.5 32.6 0 16.1-3.5 29.9-11 41.3-22.5 10.1-10.1 16.8-21.3 20.7-34.5l0.9-2.9h-43.2v3c0 4-1.3 8.8-3.8 13.9-1.6 3.2-3.2 5.3-6.9 9-7.5 7.4-15.1 10.7-25.4 10.7-10.1 0-17.9-3.3-25.4-10.7-3.8-3.7-5.3-5.7-6.9-9-2.5-5.1-3.8-9.8-3.8-13.9v-3h-21.4c-11.9 0-21.6 0.1-21.6 0.2z"/></g></g>
</svg>
