<svg version="1.1" viewBox="0 0 16 16" xmlns="http://www.w3.org/2000/svg">
 <path id="icon" d="m5.8499 6.5283c-1.0117-1.0482-2.431-1.7162-3.6225-0.56512-0.38933 0.37501-0.66798 0.88543-0.79038 1.4323-0.14584 0.64845-0.03646 1.2409 0.23308 1.7292 0.23959 0.4349 0.60548 0.79038 1.0365 1.0352 0.4323 0.2461 0.9245 0.37891 1.4128 0.36459 0.53647-0.01563 1.0729-0.21355 1.5235-0.63933 0.63673-0.60288 1.1927-1.5039 1.7357-2.3829 0.59376-0.96096 1.1719-1.8972 1.8815-2.53 0.50652-0.45183 1.0482-0.7435 1.5977-0.90366 0.78908-0.22917 1.5782-0.17839 2.2956 0.07162 0.70574 0.2448 1.3386 0.6797 1.8256 1.2266 0.41407 0.46355 0.72918 1.0156 0.90106 1.6055 0.25 0.85939 0.09896 1.8894-0.35678 2.7904-0.32292 0.63673-0.8021 1.2214-1.4037 1.6433-0.6185 0.4336-1.3633 0.69533-2.1967 0.67059-0.95314-0.02865-2.0052-0.4297-3.0899-1.3802l0.90236-1.0313c0.82163 0.72007 1.5729 1.0222 2.2253 1.0417 0.51824 0.01563 0.98439-0.14974 1.375-0.42318 0.40756-0.28516 0.73699-0.69012 0.96356-1.138 0.3073-0.60678 0.41667-1.2696 0.26563-1.7904-0.11198-0.38542-0.32553-0.75392-0.61069-1.0742-0.33855-0.38022-0.77085-0.6797-1.2448-0.84507-0.46225-0.16016-0.96877-0.19532-1.4688-0.04948-0.35548 0.10287-0.71616 0.30079-1.0664 0.61329-0.56902 0.50782-1.0925 1.3542-1.6289 2.224-0.59116 0.95705-1.1966 1.9375-1.9571 2.6563-0.71356 0.67579-1.5716 0.9896-2.431 1.0156-0.7435 0.02214-1.4844-0.17448-2.1276-0.54168-0.64585-0.36719-1.1979-0.90627-1.5625-1.5677-0.42188-0.76434-0.59246-1.6875-0.3672-2.6915 0.18099-0.8047 0.59637-1.5586 1.1784-2.1198 0.39194-0.37761 0.85939-0.67059 1.3841-0.83595 0.52866-0.16667 1.1094-0.20183 1.724-0.0638 0.79168 0.17839 1.6289 0.64585 2.4545 1.5026z" stroke-width=".13021"/>
</svg>
