<svg width="16" height="16" version="1.1" viewBox="0 0 16 16" xmlns="http://www.w3.org/2000/svg"><g id="icon" transform="matrix(28.571 0 0 28.571 -1.1429 -1.7711)"><path d="m0.34 0.56v-0.22h0.02a0.040046 0.040046 0 0 0 0.04-0.04v-0.08a0.040046 0.040046 0 0 0-0.04-0.04h-0.08a0.040046 0.040046 0 0 0-0.04 0.04v0.08a0.040046 0.040046 0 0 0 0.04 0.04h0.02v0.22h-0.26v0.04h0.56v-0.04zm-0.06-0.34h0.08l3e-5 0.08h-0.08003z"/><path d="m0.18665 0.36434a0.14001 0.14001 0 0 1 0-0.20868l0.02668 0.0298a0.1 0.1 0 0 0 0 0.14907z"/><path d="m0.45334 0.36434-0.02668-0.0298a0.09999 0.09999 0 0 0 0-0.14907l0.02668-0.0298a0.14 0.14 0 0 1 0 0.20868z"/><path d="m0.12799 0.43602a0.22004 0.22004 0 0 1 0-0.35201l0.024012 0.031996a0.18002 0.18002 0 0 0 0 0.28803z"/><path d="m0.51201 0.43602-0.024024-0.032a0.18002 0.18002 0 0 0 0-0.28804l0.024024-0.032a0.22004 0.22004 0 0 1 0 0.35202z"/></g></svg>
