<svg width="16" height="16" version="1.1" viewBox="0 0 16 16" xmlns="http://www.w3.org/2000/svg"><g id="icon" clip-rule="evenodd" fill-rule="evenodd" transform="matrix(.037795 0 0 .037795 -125.25 -35.957)"><path d="m3325.6 1101h399.86c6.456 0 11.738 5.2817 11.738 11.738v100.57c0 6.4559-5.282 11.738-11.738 11.738h-399.86c-6.456 0-11.738-5.2817-11.738-11.738v-100.57c0-6.4559 5.282-11.738 11.738-11.738zm173.91 58.784 33.438 41.809c0.639 0.7982 0.778 1.8201 0.341 2.746-0.438 0.9259-1.316 1.4819-2.337 1.4819h-21.125c-0.802 0-1.505-0.322-2.002-0.9503l-7.183-9.064-23.942-30.215v37.646c0 1.4239-1.162 2.5859-2.586 2.5859h-16.26c-1.424 0-2.586-1.162-2.586-2.5859v-80.432c0-1.4242 1.162-2.5862 2.586-2.5862h16.26c1.424 0 2.586 1.162 2.586 2.5862v34.787l24.479-30.894 4.377-5.523c0.498-0.6281 1.2-0.9503 2.003-0.9503h18.159c1.022 0 1.9 0.556 2.338 1.4819 0.437 0.9259 0.296 1.948-0.341 2.746zm37.941-30.634 5.631 7.085 28.779 36.207 30.8-37.646 11.041-13.496c0.708-0.8644 1.83-1.1739 2.88-0.7948 1.049 0.379 1.708 1.3396 1.708 2.4514l0.01 25.827c0 0.6115-0.198 1.1457-0.583 1.6181l-43.76 53.558c-0.507 0.6218-1.209 0.9533-2.016 0.9489-0.807 0-1.505-0.3418-2.007-0.9712l-46.63-58.467c-0.751-0.9414-0.764-2.2397-0.03-3.1943l10.106-13.095c0.502-0.6513 1.205-1.0009 2.025-1.0053 0.82 0 1.536 0.3377 2.043 0.974zm-116.59 74.088v-50.913c0-1.4242 1.161-2.5857 2.585-2.5857h16.261c1.425 0 2.587 1.1626 2.586 2.5873v50.911c0 1.4244-1.161 2.5867-2.586 2.5867h-16.261c-1.424 0-2.585-1.1615-2.585-2.5857zm2.586-83.02h16.258c1.424 0 2.586 1.1615 2.586 2.5857v16.26c0 1.4244-1.162 2.5859-2.586 2.5857h-16.257c-1.424 2e-4 -2.586-1.1613-2.586-2.5857v-16.26c0-1.4242 1.161-2.5857 2.585-2.5857zm-61.501 57.091v25.928c0 1.4242-1.162 2.5857-2.586 2.5857h-16.385c-1.425 0-2.586-1.1615-2.586-2.5857v-80.433c0-1.4242 1.161-2.5857 2.586-2.5857h57.151c4.272 0 7.757 3.4847 7.757 7.757v41.568c0 4.2726-3.485 7.757-7.758 7.757-12.008 0-26.163-8e-4 -38.179 0.01zm24.505-16.663v-24.505h-24.505v24.505zm239.95 42.591v-80.432c0-1.4242 1.162-2.5862 2.586-2.5862h15.071c0.814 0 1.516 0.3375 2.022 0.9741l22.484 28.212 22.484-28.212c0.506-0.6366 1.208-0.9741 2.022-0.9741h15.071c1.424 0 2.586 1.162 2.586 2.5862v80.432c0 1.4239-1.162 2.5859-2.586 2.5859h-16.008c-1.424 0-2.586-1.162-2.586-2.5859v-50.389l-18.969 23.562c-0.508 0.6307-1.205 0.9642-2.014 0.9642-0.81 0-1.506-0.3335-2.014-0.9642l-18.969-23.562v50.389c0 1.4239-1.162 2.5859-2.586 2.5859h-16.008c-1.424 0-2.586-1.162-2.586-2.5859z"/></g></svg>
