<svg width="16" height="16" version="1.1" viewBox="0 0 16 16" xmlns="http://www.w3.org/2000/svg"><path id="icon" d="m8 0a8 8 0 0 0-8 8 8 8 0 0 0 8 8 8 8 0 0 0 8-8 8 8 0 0 0-8-8zm5.582 5.3027h0.01367c0.25312 0 0.45703 0.20391 0.45703 0.45703s-0.20391 0.45703-0.45703 0.45703c-0.24609 0.00234-0.44688-0.19531-0.44922-0.44141v-0.011719c-7e-3 -0.24609 0.18711-0.45391 0.43555-0.46094zm-11.551 2.2109h0.10742l1.7656 1.6973v-1.5684c0-0.046875 0.037109-0.083984 0.083984-0.083984h0.53711c0.046875 0.00234 0.081641 0.037109 0.083984 0.083984v2.9746c-0.00234 0.04453-0.039453 0.08008-0.083984 0.08008h-0.074219c-0.021094-0.0023-0.040234-0.0098-0.056641-0.02149l-1.7441-1.7559v1.6484c0 0.04687-0.037109 0.08399-0.083984 0.08399h-0.5293c-0.046875 0-0.0875-0.03711-0.089844-0.08399v-2.9746c0.0023438-0.044528 0.039453-0.080075 0.083984-0.080075zm7.7754 0.042969h0.51563c0.05859 0 0.10742 0.048828 0.10742 0.10742v1.1602l0.98242-1.2246c0.02109-0.025781 0.05117-0.038281 0.08399-0.042969h0.55469c0.06094 0.00703 0.10274 0.060547 0.0957 0.11914-0.0023 0.016406-0.0062 0.030859-0.01563 0.044922l-1.0332 1.293 1.123 1.4629c0.03047 0.04922 0.01641 0.11602-0.03516 0.14648-0.01641 0.0094-0.03438 0.01523-0.05078 0.01758h-0.60938c-0.03047 0-0.05703-0.0125-0.07813-0.03125l-1.0195-1.3828v1.3184c0 0.05859-0.05078 0.10742-0.10938 0.10742h-0.51562c-0.05859 0-0.10742-0.04883-0.10742-0.10742v-2.8809c0.0023-0.058594 0.05039-0.10742 0.11133-0.10742zm-3.8359 0.00195h0.53906c0.046875-1e-7 0.085938 0.037109 0.085938 0.083984v1.7891c0 0.30234 0.24453 0.54688 0.54688 0.54688 0.30234 0 0.54883-0.24453 0.54883-0.54688v-1.7891c0-0.046875 0.037109-0.083984 0.083984-0.083984h0.53906c0.04687 0.00234 0.08359 0.037109 0.08594 0.083984v1.8262c-0.02109 0.69609-0.60078 1.2438-1.2969 1.2227-0.66797-0.02109-1.2039-0.55469-1.2227-1.2227v-1.8262h0.00586c0.00234-0.046875 0.037109-0.081641 0.083984-0.083984zm7.3652 0h0.5293c0.04687 0.00234 0.08164 0.037109 0.08398 0.083984v2.9258c-0.0023 0.04687-0.03711 0.08164-0.08398 0.08399h-0.5293c-0.04687-0.0023-0.08164-0.03711-0.08399-0.08399v-2.9258c0.0023-0.046875 0.03711-0.081641 0.08399-0.083984z"/></svg>
