<svg width="16" height="16" version="1.1" viewBox="0 0 16 16" xmlns="http://www.w3.org/2000/svg"><g id="icon" transform="matrix(.054125 0 0 .054125 .00029757 -.00026059)"><path d="m293.47 253.96-131.81-228.3c-2.858-4.95-8.141-8-13.856-8s-10.998 3.05-13.856 8l-131.81 228.3c-2.858 4.95-2.858 11.05 0 16s8.141 8 13.856 8h263.61c5.716 0 10.998-3.05 13.857-8s2.858-11.049 0-16zm-112.71-124.72-25.509 36.718h18.532c1.424 0 2.74 0.757 3.457 1.987 0.716 1.23 0.725 2.749 0.021 3.987l-43.703 76.974c-0.729 1.283-2.075 2.026-3.48 2.026-0.466 0-0.939-0.082-1.398-0.253-1.84-0.686-2.909-2.608-2.523-4.534l11.058-55.188h-27.074c-1.262 0-2.449-0.595-3.204-1.605-0.755-1.011-0.989-2.317-0.632-3.527l17.722-60c0.502-1.7 2.063-2.867 3.836-2.867h49.611c1.489 0 2.854 0.827 3.545 2.146 0.69 1.319 0.591 2.913-0.259 4.136z"/></g></svg>
