<svg width="16" height="16" viewBox="0 0 16 16" xmlns="http://www.w3.org/2000/svg"><path id="icon" d="m11.244 5.1611c-0.09896 0.04818-0.19661 0.10156-0.29426 0.15885a6.8123 6.8123 0 0 0-0.87628 0.62238l-0.63019-0.72134a5.2355 5.2355 0 0 1 0.70441-0.54816 4.9165 4.9165 0 0 1 0.62108-0.34504c0.08593-0.04297 0.17187-0.08333 0.26041-0.12109a3.8306 3.8306 0 0 0-1.6927-1.5885 4.1145 4.1145 0 0 0-2.1744-0.3789 3.9335 3.9335 0 0 0-2.0338 0.79425 3.8111 3.8111 0 0 0-1.3932 2.3619l-0.0625 0.32681-0.32551 0.05729a4.483 4.483 0 0 0-0.85414 0.23046 2.8189 2.8189 0 0 0-0.65102 0.34634 2.1549 2.1549 0 0 0-0.39062 0.36457 2.2135 2.2135 0 0 0-0.49478 1.444 2.6197 2.6197 0 0 0 0.49348 1.5013 2.4609 2.4609 0 0 0 0.41275 0.4427 2.0716 2.0716 0 0 0 0.53644 0.32291 2.7083 2.7083 0 0 0 0.66404 0.17447h0.22656a4.6561 4.6561 0 0 0-0.03385 0.5755c0 0.1302 0 0.26041 0.01563 0.39062h-0.28645a3.7278 3.7278 0 0 1-0.94919-0.24348 3.0168 3.0168 0 0 1-0.78774-0.47264 3.3697 3.3697 0 0 1-0.5729-0.61587 3.5728 3.5728 0 0 1-0.67446-2.0755 3.1627 3.1627 0 0 1 0.71873-2.0598 3.1158 3.1158 0 0 1 0.56509-0.52082 3.828 3.828 0 0 1 0.86326-0.46223 5.2499 5.2499 0 0 1 0.71743-0.22265 4.7095 4.7095 0 0 1 1.6822-2.6236 4.8905 4.8905 0 0 1 2.5286-0.98826 5.078 5.078 0 0 1 2.6744 0.46874 4.802 4.802 0 0 1 2.2291 2.1966 3.8801 3.8801 0 0 1 0.62368-0.04687 3.1965 3.1965 0 0 1 2.3841 1.0416 3.7955 3.7955 0 0 1 0.39061 0.5078 4.2968 4.2968 0 0 1 0.62108 2.3333c-0.0091 0.82029-0.23176 1.6393-0.68358 2.2408a3.5572 3.5572 0 0 1-1.1224 0.95961 5.7069 5.7069 0 0 1-1.4544 0.54946c0.0078-0.11849 0.01302-0.23697 0.01302-0.35676a4.7095 4.7095 0 0 0-0.04167-0.62498 4.4908 4.4908 0 0 0 1.0143-0.40233 2.6627 2.6627 0 0 0 0.83331-0.70441c0.32551-0.43358 0.48566-1.0416 0.49217-1.6757a3.3267 3.3267 0 0 0-0.46613-1.8046 2.6041 2.6041 0 0 0-0.29296-0.37629 2.2591 2.2591 0 0 0-1.6927-0.73175 3.2994 3.2994 0 0 0-1.3541 0.29947zm-0.49478 7.5753 0.03516-0.0651 0.04166-0.07943 0.04297-0.09114 0.04166-0.09114v-0.01042q0.02995-0.07031 0.05469-0.14062c0.01693-0.04687 0.03385-0.09505 0.04818-0.14322 0.01432-0.04818 0.02864-0.09765 0.04036-0.14713 0.01172-0.04948 0.02474-0.09896 0.03385-0.14974 0.0091-0.05078 0.01563-0.08073 0.02214-0.11979 0.0065-0.03906 0.01172-0.07812 0.01693-0.11979 0-0.03646 0.0078-0.07291 0.01042-0.10937 0.0026-0.03646 0-0.05859 0-0.08724h-0.85805a2.7135 2.7135 0 0 1-0.03776 0.33984 3.151 3.151 0 0 1-0.08463 0.34895 3.19 3.19 0 0 1-0.1302 0.34765c-0.04427 0.10416-0.09505 0.20833-0.15104 0.31119zm-0.26041 0.40233h-0.85284c-0.07161 0.10286-0.14974 0.20442-0.23307 0.30728-0.08333 0.10286-0.18489 0.20963-0.28775 0.3177s-0.1875 0.19401-0.29036 0.29036c-0.10286 0.09635-0.17057 0.15755-0.26041 0.23567l0.07161-0.01302c0.04948-0.01042 0.09896-0.02083 0.14974-0.03385l0.14974-0.04167c0.04818-0.01563 0.09765-0.03255 0.14583-0.05078s0.09765-0.03646 0.14453-0.05729c0.04687-0.02083 0.09635-0.04297 0.14192-0.0651 0.04557-0.02213 0.09245-0.04557 0.13802-0.07031 0.04557-0.02474 0.08984-0.05078 0.1302-0.07682l0.1302-0.08073c0.04167-0.02734 0.08333-0.05729 0.1302-0.08724 0.04687-0.02995 0.07943-0.05989 0.11849-0.09244l0.11328-0.09765c0.03776-0.03385 0.07422-0.06901 0.10937-0.10416l0.08203-0.08463 0.07682-0.08593 0.0599-0.07031 0.02734-0.03516zm-3.0559 1.1458c-0.08984-0.07812-0.17708-0.15755-0.26041-0.23567-0.08333-0.07812-0.19791-0.1927-0.28906-0.28515-0.09114-0.09244-0.1901-0.20963-0.27603-0.31379-0.08593-0.10416-0.16145-0.20703-0.22656-0.31119h-0.85935l0.02864 0.03516 0.05859 0.07031c0.05078 0.05859 0.10416 0.11458 0.15885 0.17057 0.03515 0.03516 0.07161 0.06901 0.10807 0.10286 0.03646 0.03385 0.07552 0.06771 0.11328 0.09765 0.03776 0.02995 0.07812 0.0625 0.11849 0.09244 0.04036 0.02995 0.08203 0.05989 0.1302 0.08724l0.1302 0.08203c0.04297 0.02604 0.08724 0.05208 0.1302 0.07552 0.04297 0.02344 0.09244 0.04818 0.13802 0.07031l0.14322 0.0651h0.01042q0.07031 0.02864 0.14062 0.05469c0.04687 0.01823 0.09505 0.03385 0.14322 0.04948l0.14713 0.04167c0.04948 0.01172 0.09896 0.02344 0.14974 0.03255l0.06641 0.01302zm-2.1809-1.5468h0.86847q-0.08463-0.15625-0.15234-0.31249a3.4114 3.4114 0 0 1-0.1302-0.34895 2.9127 2.9127 0 0 1-0.08463-0.35806 2.6783 2.6783 0 0 1-0.03776-0.33593h-0.86456v0.08724c0 0.02995 0.0078 0.07422 0.01172 0.10937 0.0039 0.03516 0.01042 0.08073 0.01693 0.11979 0.0065 0.03906 0.01302 0.07812 0.02083 0.11849 0.01042 0.04948 0.02213 0.09896 0.03516 0.14974 0.01302 0.05078 0.02604 0.10026 0.04167 0.14843 0.01563 0.04818 0.03125 0.09765 0.04948 0.14713 0.01823 0.04948 0.03776 0.09635 0.05729 0.14322l0.03906 0.08984c0.01302 0.02864 0.02734 0.05729 0.04167 0.08724l0.04167 0.08203 0.03646 0.0664zm-0.40103-1.7565h0.87888a3.0364 3.0364 0 0 1 0.14583-0.69009 3.4791 3.4791 0 0 1 0.1302-0.34765q0.07161-0.15885 0.16015-0.3164h-0.91404l-0.03646 0.06771-0.04167 0.08073c-0.01562 0.02864-0.02864 0.05859-0.04297 0.08724-0.01432 0.02865-0.02734 0.0612-0.03906 0.09114-0.01953 0.04687-0.03776 0.09375-0.05469 0.13932-0.01693 0.04557-0.03385 0.09635-0.04818 0.14453-0.01432 0.04818-0.02865 0.09765-0.04167 0.14713-0.01302 0.04948-0.02344 0.10026-0.03385 0.15104-0.01042 0.05078-0.01563 0.08073-0.02214 0.11849-0.0065 0.03776-0.01172 0.07943-0.01693 0.12109-0.0052 0.04167-0.0078 0.07161-0.01042 0.10937-0.0026 0.03776 0 0.05859 0 0.08594zm0.66665-1.7552h0.91143q0.10677-0.15364 0.23046-0.30468c0.08463-0.10547 0.17447-0.21093 0.26952-0.3151s0.18359-0.19531 0.28254-0.29426c0.09896-0.09896 0.16796-0.16145 0.26041-0.24218h-0.03776l-0.0638 0.01172-0.15104 0.03516c-0.05078 0.01172-0.10026 0.02604-0.14974 0.04167-0.04948 0.01563-0.09765 0.03125-0.14713 0.04948-0.04948 0.01823-0.09635 0.03776-0.14322 0.05859-0.04687 0.02083-0.09765 0.04297-0.14322 0.0651-0.04557 0.02213-0.09245 0.04557-0.13802 0.07031-0.04557 0.02474-0.08984 0.04948-0.1302 0.07682-0.04036 0.02734-0.08593 0.05208-0.1302 0.07942-0.04427 0.02734-0.08463 0.05729-0.1302 0.08724-0.04557 0.02995-0.08073 0.0612-0.11849 0.09245-0.03776 0.03125-0.07682 0.0638-0.11328 0.09895-0.03646 0.03516-0.07292 0.06771-0.10937 0.10416l-0.08073 0.08203-0.07682 0.08593c-0.02083 0.02344-0.04036 0.04818-0.05989 0.07161l-0.02995 0.03776zm3.0221-1.1536c0.08854 0.08073 0.17448 0.16145 0.26041 0.24218 0.08594 0.08073 0.1927 0.19531 0.28124 0.29166 0.08854 0.09635 0.18098 0.20963 0.26432 0.31379 0.08333 0.10416 0.15755 0.20442 0.22916 0.30598h0.91143l-0.02865-0.03646-0.05989-0.07031-0.07682-0.08594-0.08594-0.08724c-0.03646-0.03646-0.07291-0.07161-0.10937-0.10416-0.03646-0.03255-0.07552-0.0664-0.11328-0.09765-0.03776-0.03125-0.07812-0.0625-0.11849-0.09244-0.04036-0.02995-0.08073-0.0599-0.12239-0.08724l-0.1302-0.08073c-0.04427-0.02734-0.08854-0.05208-0.1302-0.07682-0.04167-0.02474-0.09245-0.04817-0.13802-0.07031-0.04557-0.02213-0.09375-0.04297-0.14322-0.0651a0.019531 0.019531 0 0 1-0.01042 0q-0.07031-0.02864-0.14062-0.05469c-0.04687-0.01693-0.09505-0.03385-0.14453-0.04818-0.04948-0.01432-0.09765-0.02864-0.14713-0.04036-0.04948-0.01172-0.10026-0.02474-0.15104-0.03385l-0.0625-0.01302h-0.03385zm2.2135 1.5533h-0.92445q0.08724 0.15885 0.16015 0.3164c0.05208 0.11588 0.09765 0.23307 0.13671 0.34895a3.0364 3.0364 0 0 1 0.14583 0.69009h0.87888v-0.08593l-0.01172-0.11067c0-0.04036-0.01042-0.08073-0.01693-0.11979-0.0065-0.03906-0.01302-0.07812-0.02083-0.11849-0.01042-0.04948-0.02213-0.10026-0.03516-0.14974-0.01302-0.04948-0.02604-0.10026-0.04166-0.14974-0.01563-0.04948-0.03125-0.09765-0.04948-0.14583s-0.03646-0.09635-0.05729-0.14322c-0.01172-0.02865-0.02604-0.05989-0.03906-0.08984-0.01302-0.02734-0.02604-0.05729-0.04166-0.08724l-0.04167-0.08073-0.03646-0.06771zm-3.4608-1.9296 0.17448-0.03125c0.05729-0.0091 0.11588-0.01563 0.17578-0.02213 0.05989-0.0065 0.12109-0.01042 0.18098-0.01302h0.18229c0.12109 0 0.24218 0 0.36197 0.01693 0.05989 0 0.11849 0.01302 0.17708 0.02214l0.17578 0.03125c0.05599 0.01042 0.11328 0.02344 0.16927 0.03776 0.05599 0.01432 0.11198 0.02995 0.16666 0.04687 0.05469 0.01693 0.11067 0.03516 0.16406 0.05469 0.05338 0.01953 0.10677 0.04167 0.16015 0.0638l0.01562 0.0078c0.05078 0.02083 0.10156 0.04427 0.15234 0.06901l0.15234 0.07812c0.05078 0.02734 0.10026 0.05599 0.14843 0.08463 0.04948 0.02995 0.09896 0.05989 0.14583 0.09244s0.09245 0.0625 0.13671 0.09505c0.04427 0.03255 0.08984 0.06901 0.1302 0.10416 0.04036 0.03516 0.08724 0.07422 0.1302 0.11198 0.04297 0.03776 0.08594 0.07943 0.1302 0.11979 0.03906 0.03906 0.07812 0.07943 0.11588 0.12109 0.03776 0.04167 0.07552 0.08463 0.11068 0.1302 0.03516 0.04557 0.07031 0.08724 0.10416 0.1302l0.09896 0.14062c0.03255 0.04687 0.0625 0.09505 0.09114 0.14323 0.02864 0.04818 0.05859 0.09896 0.08594 0.14974 0.02734 0.05078 0.05338 0.10026 0.07812 0.15234 0.02474 0.05208 0.04948 0.10677 0.07291 0.15885 0.02344 0.05208 0.04427 0.10807 0.0651 0.16406 0.02083 0.05599 0.03906 0.11067 0.05729 0.16796s0.03255 0.11198 0.04687 0.16796c0.01432 0.05599 0.02734 0.11328 0.03906 0.17187 0.01172 0.05859 0.02213 0.11718 0.03125 0.17447 0.0091 0.05729 0.01563 0.11718 0.02213 0.17708 0.0065 0.05989 0.01042 0.12109 0.01302 0.18098 0.0026 0.05989 0 0.12239 0 0.18229v0.18229c0 0.0612-0.0078 0.11979-0.01302 0.17968-0.0052 0.05989-0.01302 0.11979-0.02213 0.17838-0.0091 0.05729-0.01953 0.11588-0.03125 0.17448-0.01172 0.05859-0.02344 0.11328-0.03776 0.16927-0.01432 0.05599-0.02995 0.11198-0.04687 0.16666-0.01693 0.05469-0.03515 0.11067-0.05469 0.16406-0.01953 0.05338-0.04167 0.10677-0.0638 0.16015a0.097654 0.097654 0 0 1-0.0078 0.01693c-0.02214 0.05208-0.04557 0.10416-0.07031 0.15494s-0.05208 0.10286-0.07943 0.15234c-0.02734 0.04948-0.05599 0.10156-0.08463 0.14974-0.02864 0.04818-0.05989 0.09635-0.09114 0.14322-0.03125 0.04687-0.0638 0.09245-0.09765 0.13802-0.03385 0.04557-0.06771 0.08984-0.10286 0.1302-0.03646 0.04427-0.07422 0.08724-0.11198 0.1302-0.03906 0.04297-0.07812 0.08333-0.11849 0.1302q-0.0612 0.0612-0.12109 0.11718c-0.04167 0.03646-0.08463 0.07422-0.1302 0.10937-0.04557 0.03516-0.08724 0.07031-0.1302 0.10547l-0.13932 0.09765c-0.04687 0.03125-0.09505 0.0625-0.14323 0.09114-0.04818 0.02864-0.09896 0.05859-0.15104 0.08593-0.05208 0.02734-0.10156 0.05338-0.15364 0.07943-0.05208 0.02604-0.10547 0.04948-0.15755 0.07161-0.05208 0.02213-0.10807 0.04427-0.16406 0.0651-0.05599 0.02083-0.11067 0.03906-0.16666 0.05729l-0.16927 0.04687q-0.08463 0.02213-0.17187 0.03906l-0.17447 0.03125c-0.05729 0.0091-0.11718 0.01563-0.17708 0.02213-0.11979 0.01172-0.24088 0.01693-0.36327 0.01693h-0.18229c-0.05989 0-0.11979-0.0078-0.17968-0.01302-0.05989-0.0052-0.11979-0.01302-0.17708-0.02213-0.05729-0.0091-0.11588-0.01823-0.17578-0.03125-0.05989-0.01302-0.11328-0.02344-0.16927-0.03776-0.05599-0.01432-0.11198-0.02995-0.16666-0.04687-0.05469-0.01693-0.10937-0.03516-0.16276-0.05469-0.05338-0.01953-0.10937-0.04167-0.16276-0.0638l-0.01432-0.0078c-0.05078-0.02083-0.10286-0.04427-0.15364-0.06901s-0.10156-0.05078-0.15104-0.07812l-0.14844-0.08463-0.14843-0.09375c-0.04687-0.03125-0.09245-0.0638-0.13802-0.09635l-0.1302-0.10416c-0.04427-0.03646-0.08724-0.07422-0.1302-0.11198-0.04297-0.03776-0.08463-0.07942-0.1302-0.11849-0.04036-0.04036-0.07943-0.08073-0.11588-0.12109-0.03646-0.04036-0.07552-0.08463-0.11067-0.1302-0.03516-0.04557-0.07161-0.08854-0.10547-0.1302-0.03385-0.04167-0.0651-0.09114-0.09635-0.13932-0.03125-0.04818-0.0625-0.09505-0.09245-0.14323-0.02995-0.04818-0.05859-0.09896-0.08593-0.15104-0.02734-0.05208-0.05338-0.10156-0.07812-0.15364-0.02474-0.05208-0.04948-0.10416-0.07292-0.15755-0.02344-0.05338-0.04427-0.10807-0.0651-0.16406-0.02083-0.05599-0.03906-0.11067-0.05599-0.16666-0.01693-0.05599-0.03385-0.11328-0.04818-0.16927-0.01432-0.05599-0.02734-0.11328-0.03906-0.17187-0.01172-0.05859-0.02214-0.11718-0.03125-0.17578-0.0091-0.05859-0.01562-0.11588-0.02213-0.17578-0.0065-0.05989-0.01042-0.12109-0.01302-0.18098-0.0026-0.05989 0-0.12239 0-0.18229 0-0.12109 0-0.24218 0.01693-0.36197 0.0065-0.05989 0.01302-0.11849 0.02213-0.17708 0.0091-0.05859 0.01953-0.11588 0.03125-0.17448 0.01172-0.05859 0.02344-0.11328 0.03776-0.16927 0.01432-0.05599 0.02995-0.11198 0.04687-0.16796 0.01693-0.05599 0.03516-0.11067 0.05469-0.16406 0.01953-0.05338 0.04166-0.10677 0.0638-0.15885a0.054686 0.054686 0 0 1 0-0.01302q0.03385-0.07812 0.07031-0.15625c0.02604-0.05078 0.05208-0.10156 0.07942-0.15234s0.05599-0.10026 0.08463-0.14843c0.02864-0.04818 0.05989-0.09635 0.09114-0.14453 0.03125-0.04818 0.0638-0.09245 0.09765-0.13802 0.03385-0.04557 0.06771-0.08854 0.10286-0.1302 0.03516-0.04167 0.07422-0.08724 0.11198-0.1302 0.03776-0.04297 0.07943-0.08593 0.11979-0.1302q0.05859-0.05989 0.12109-0.11718c0.04167-0.03776 0.08463-0.07422 0.1302-0.11067 0.04557-0.03646 0.08854-0.07161 0.1302-0.10416 0.04557-0.03385 0.09114-0.0664 0.13802-0.09635 0.04687-0.02995 0.09505-0.0625 0.14323-0.09245 0.04817-0.02995 0.09895-0.05859 0.15104-0.08593 0.05208-0.02734 0.10026-0.05338 0.15234-0.07812 0.05208-0.02474 0.10547-0.04948 0.15885-0.07292 0.05469-0.02344 0.10937-0.04557 0.16276-0.0651 0.05338-0.01953 0.11067-0.03906 0.16666-0.05599 0.05599-0.01693 0.11328-0.03385 0.16927-0.04818 0.05599-0.01432 0.11328-0.02734 0.17187-0.03906zm0.91143 0.60936v0.92055h0.87758c-0.05338-0.07031-0.11068-0.13932-0.17057-0.20833-0.05989-0.06901-0.14583-0.16406-0.22395-0.24609-0.07812-0.08203-0.16145-0.16666-0.24869-0.24999-0.08724-0.08333-0.15364-0.14323-0.23437-0.21614zm0 1.3203v1.3554h1.6666a2.6783 2.6783 0 0 0-0.05338-0.31379 2.9231 2.9231 0 0 0-0.10286-0.34244 3.2942 3.2942 0 0 0-0.15364-0.35285c-0.05859-0.11458-0.1302-0.23046-0.19791-0.34634zm0 1.7565v1.3554h1.2148a3.6718 3.6718 0 0 0 0.1875-0.33983 3.0611 3.0611 0 0 0 0.14453-0.35025 2.7864 2.7864 0 0 0 0.08984-0.34374 2.4947 2.4947 0 0 0 0.04036-0.32161zm0 1.7565v0.93617c0.08593-0.07292 0.17057-0.14583 0.2513-0.22005 0.08073-0.07422 0.17968-0.16796 0.26041-0.2513 0.08073-0.08333 0.16145-0.16796 0.23567-0.2513 0.07422-0.08333 0.12239-0.14322 0.17968-0.21354zm-0.40364 0.93617v-0.93617h-0.92966c0.05729 0.07161 0.11588 0.14322 0.17968 0.21354 0.0638 0.07031 0.15104 0.16666 0.23437 0.24999 0.08333 0.08333 0.17057 0.16796 0.26041 0.2526 0.08984 0.08463 0.16536 0.14713 0.2526 0.22005zm0-1.3372v-1.3554h-1.6796a2.4479 2.4479 0 0 0 0.04036 0.3203 2.5455 2.5455 0 0 0 0.09114 0.34504 2.9556 2.9556 0 0 0 0.14322 0.35025c0.05469 0.11328 0.11849 0.22656 0.1875 0.33983zm0-1.7565v-1.3554h-1.1588c-0.07422 0.11588-0.13932 0.23176-0.19791 0.34634a3.2942 3.2942 0 0 0-0.15364 0.35285 2.9231 2.9231 0 0 0-0.10286 0.34244 2.6783 2.6783 0 0 0-0.05338 0.31379zm0-1.7552v-0.92055c-0.08073 0.07291-0.15885 0.14453-0.23307 0.21614-0.07422 0.07161-0.17187 0.16406-0.24999 0.24999-0.07812 0.08593-0.15494 0.16406-0.22395 0.24609-0.06901 0.08203-0.11588 0.13802-0.17057 0.20833z"/></svg>
