<svg width="16" height="16" viewBox="0 0 16 16" xmlns="http://www.w3.org/2000/svg"><path id="icon" d="m0.036536 0.11907c0.038821-0.033333 0.069487-0.059687 0.15271-0.012666 0.039976 0.022577 0.07222 0.03111 0.099042 0.031066 0.047 0 0.07746-0.026133 0.1038-0.048732a0.023044 0.023044 0 0 0 0.0027-0.031977 0.021933 0.021933 0 0 0-0.03133-0.00278c-0.0388 0.033377-0.06949 0.059732-0.15271 0.012666-0.10995-0.062065-0.16146-0.017844-0.20284 0.017711a0.023044 0.023044 0 0 0-0.00269 0.031977 0.021911 0.021911 0 0 0 0.03131 0.00273zm0.32692 0.048399c-0.0388 0.033332-0.06949 0.059732-0.15271 0.012666-0.10995-0.06211-0.16146-0.017866-0.20284 0.017666a0.023044 0.023044 0 0 0-0.00269 0.031976 0.021911 0.021911 0 0 0 0.03131 0.0028c0.038821-0.033355 0.069487-0.05971 0.15271-0.01271 0.039976 0.02262 0.07222 0.03111 0.099042 0.03111 0.047 0 0.07746-0.02613 0.1038-0.04878a0.022999 0.022999 0 0 0 0.0027-0.031955 0.021911 0.021911 0 0 0-0.03133-0.00276zm0 0.11346c-0.0388 0.03338-0.06949 0.05973-0.15271 0.01271-0.10995-0.06211-0.16146-0.01789-0.20284 0.01767a0.023044 0.023044 0 0 0-0.00269 0.03198 0.021888 0.021888 0 0 0 0.03131 0.0027c0.038821-0.03333 0.069487-0.05966 0.15271-0.01267 0.039976 0.02258 0.07222 0.03111 0.099042 0.03111 0.047 0 0.07746-0.02618 0.1038-0.04878a0.023044 0.023044 0 0 0 0.0027-0.03198 0.021955 0.021955 0 0 0-0.03133-0.0028z"/></svg>
