<svg viewBox="0 0 16 16" xmlns="http://www.w3.org/2000/svg"><g id="icon" transform="matrix(.57143 0 0 .66667 -1.1429 -4)"><path d="m7.001 15.004 6.999-4e-3c0.335 0 0.646-0.167 0.832-0.445l0.168-0.253v2.697c0 0.405 0.243 0.769 0.617 0.924s0.804 0.07 1.09-0.216l2.704-2.704 5.583 0.036c0.551 3e-3 1.002-0.442 1.006-0.994s-0.442-1.003-0.994-1.006l-6-0.039c-0.267-2e-3 -0.524 0.104-0.713 0.293l-1.293 1.292 1e-3 -3.585c0-0.441-0.288-0.83-0.71-0.957-0.422-0.128-0.877 0.035-1.122 0.402l-1.704 2.555-6.466 4e-3c-0.552 0-0.999 0.449-0.999 1.001s0.449 0.999 1.001 0.999z"/><path d="m15.01 25.997v1.996l-4.009-5e-3c-0.552-1e-3 -1 0.446-1.001 0.998s0.447 1.001 0.999 1.002l10 0.012c0.552 1e-3 1-0.447 1.001-0.999s-0.447-1-0.999-1.001l-3.991-5e-3v-1.998h9.99c0.796 0 1.559-0.316 2.121-0.878 0.563-0.563 0.879-1.326 0.879-2.122v-13.997c0-0.796-0.316-1.559-0.879-2.121-0.562-0.563-1.325-0.879-2.121-0.879h-22c-0.796 0-1.559 0.316-2.121 0.879-0.563 0.562-0.879 1.325-0.879 2.121v13.997c0 0.796 0.316 1.559 0.879 2.122 0.562 0.562 1.325 0.878 2.121 0.878zm12.99-3.997v0.997c0 0.266-0.105 0.52-0.293 0.708-0.187 0.187-0.442 0.292-0.707 0.292h-22c-0.265 0-0.52-0.105-0.707-0.292-0.188-0.188-0.293-0.442-0.293-0.708v-0.997zm0-2h-24v-11c0-0.265 0.105-0.52 0.293-0.707 0.187-0.188 0.442-0.293 0.707-0.293h22c0.265 0 0.52 0.105 0.707 0.293 0.188 0.187 0.293 0.442 0.293 0.707z"/></g></svg>
