<svg version="1.1" viewBox="0 0 16 16" xmlns="http://www.w3.org/2000/svg"><path id="icon" class="st0" d="m14.796 14.751c0 0.1315-0.28225 0.4444-0.41505 0.44431l-12.827-0.0087c-0.1315 3e-5 -0.30161-0.299-0.30161-0.4318v-6.5623c-0.2682 0.10286-0.45483 0.10416-0.66315 0.035153-0.16275-0.054682-0.29945-0.15233-0.3997-0.27992-0.10025-0.12629-0.16405-0.28122-0.18358-0.45048-0.028643-0.2643 0.050777-0.56375 0.27471-0.84367 0.011718-0.014322 0.024737-0.027341 0.039059-0.039059l7.4993-5.0868c0.084628-0.078118 0.21482-0.08593 0.30857-0.01302l7.5136 5.0764c0.01042 0.00781 0.01953 0.016925 0.02864 0.026039 0.30206 0.32549 0.37757 0.68614 0.30466 0.9921-0.03646 0.14973-0.10806 0.28643-0.20701 0.3971-0.09895 0.11197-0.22524 0.1979-0.36976 0.24998-0.22915 0.083326-0.32446 0.07942-0.60048-0.050777-0.0013 2.0311-0.0013 4.1834-0.0013 6.2132zm-9.771-5.4766-0.010416 0.0091102c-0.054683 0.044267-0.12108 0.062494-0.18488 0.057286-0.065098-0.00521-0.12889-0.033851-0.17577-0.08593l-0.00911-0.011718c-0.04427-0.054678-0.062498-0.12108-0.05729-0.18487 0.00521-0.067702 0.036455-0.1328 0.091138-0.17967 0.50516-0.43355 1.0442-0.76165 1.6014-0.98038 0.56115-0.22003 1.1418-0.3307 1.7264-0.32549 0.57547 0.00521 1.1548 0.12108 1.7199 0.35413 0.54943 0.22524 1.0858 0.55984 1.5988 1.0077 0.05468 0.048173 0.08463 0.11327 0.08984 0.18097v0.0026c0.0039 0.0664-0.01693 0.1341-0.0651 0.18879-0.04817 0.054682-0.11327 0.084628-0.18097 0.089836h-0.0026c-0.06641 0.00391-0.13411-0.016922-0.18879-0.065095-0.4648-0.40621-0.94913-0.70957-1.4439-0.91398-0.50646-0.20962-1.0207-0.31377-1.5324-0.31898-0.51818-0.00391-1.0351 0.095043-1.5363 0.29294-0.49865 0.1966-0.98298 0.49214-1.44 0.88273zm2.975 2.3409c0.16665 0 0.31768 0.0677 0.42704 0.17707 0.10936 0.10936 0.17707 0.2604 0.17707 0.42705s-0.067702 0.31768-0.17707 0.42704c-0.10937 0.10936-0.26039 0.17707-0.42704 0.17707s-0.31768-0.0677-0.42704-0.17707c-0.10936-0.10936-0.17707-0.26039-0.17707-0.42704s0.067702-0.31768 0.17707-0.42705c0.10937-0.10936 0.26039-0.17707 0.42704-0.17707zm-1.0936-0.38668c-0.00391 0.0039-0.00781 0.0078-0.01302 0.01042-0.054682 0.04166-0.12108 0.05859-0.18618 0.05208-0.063796-0.0065-0.12629-0.03646-0.17186-0.08853-0.00391-0.0039-0.00781-0.0091-0.011718-0.01432-0.041663-0.05468-0.058588-0.12108-0.052078-0.18618 0.00651-0.0664 0.039059-0.1315 0.096345-0.17707 0.22394-0.18228 0.45829-0.32028 0.69785-0.41402 0.24086-0.09374 0.48824-0.14191 0.73691-0.14322 0.24607-0.0013 0.49214 0.04427 0.73431 0.13801 0.23566 0.09114 0.46741 0.22784 0.69264 0.41142 0.055984 0.04557 0.088534 0.11067 0.096345 0.17707 0.00651 0.0664-0.011718 0.13671-0.057286 0.19269l-0.0013 0.0013c-0.045569 0.05598-0.10936 0.08853-0.17707 0.09504-0.0664 0.0065-0.13671-0.01172-0.19269-0.05729-0.17837-0.14452-0.35934-0.25258-0.54162-0.32419-0.18488-0.07291-0.36976-0.10806-0.55203-0.10676-0.18488 0-0.37106 0.03776-0.55464 0.11067-0.18488 0.07161-0.36585 0.17967-0.54292 0.32289zm-0.92049-0.91528c-0.054682 0.04817-0.12369 0.07031-0.19009 0.0664-0.067702-0.0039-0.1328-0.03385-0.18097-0.08853-0.048173-0.05468-0.070306-0.12369-0.065098-0.19009 0.00391-0.0677 0.033851-0.1328 0.088534-0.18097 0.37887-0.33591 0.77076-0.58979 1.1692-0.75775 0.3984-0.16795 0.80461-0.24998 1.2134-0.24347 0.40361 0.00651 0.80592 0.10025 1.2043 0.28383 0.38799 0.17837 0.77076 0.44267 1.1457 0.7955 0.05338 0.049475 0.08072 0.11718 0.08333 0.18358 0.0026 0.0677-0.02213 0.1354-0.07161 0.18878-0.04947 0.05338-0.11718 0.08072-0.18358 0.08333-0.0677 0.0026-0.1354-0.02213-0.18878-0.07161-0.3281-0.30857-0.6601-0.54032-0.9921-0.69525-0.33591-0.15624-0.67181-0.23696-1.0064-0.24217-0.33851-0.00521-0.67832 0.065098-1.0142 0.20831-0.34242 0.14582-0.68093 0.36715-1.0116 0.6601zm7.528 3.5574-0.01241-5.9142c-3.4e-5 -0.015623-0.09973-0.06227-0.09713-0.076591l-5.3809-3.9957-5.5188 3.997c-0.016781 0.011266-0.015941 0.040363-0.015621 0.061192l-0.01263 5.8662z" stroke-width=".1302"/></svg>
