<svg version="1.1" viewBox="0 0 16 16" xmlns="http://www.w3.org/2000/svg">
 <path id="icon" d="m7.4845 4.033v-0.73816a1.876 1.876 0 0 1-0.26037-0.12107 1.5857 1.5857 0 0 1-0.65744-1.9658 1.613 1.613 0 0 1 0.34369-0.51424 1.5896 1.5896 0 0 1 0.51033-0.34239 1.5622 1.5622 0 0 1 0.60667-0.11977 1.5805 1.5805 0 0 1 1.4607 0.9764 1.5805 1.5805 0 0 1 0 1.2068 1.5727 1.5727 0 0 1-0.34369 0.51294l-0.0078 0.0078a1.6586 1.6586 0 0 1-0.30724 0.23824 1.4659 1.4659 0 0 1-0.26037 0.12107v0.73816h3.7077a2.014 2.014 0 0 1 2.0075 2.0088v0.29813h0.68739a1.0324 1.0324 0 0 1 1.0285 1.0298v2.3915a1.0324 1.0324 0 0 1-1.0285 1.0298h-0.68348v0.26949a2.0153 2.0153 0 0 1-2.0114 2.0088h-5.0864l-3.049 2.6181a0.33588 0.33588 0 0 1-0.47518-0.03775 0.34239 0.34239 0 0 1-0.08202-0.24085l0.16273-2.3434h-0.02734a2.0114 2.0114 0 0 1-2.0062-2.0049v-0.26949h-0.68348a1.0324 1.0324 0 0 1-1.0298-1.0298v-2.3915a1.0324 1.0324 0 0 1 1.0285-1.0298h0.68478v-0.29943a2.0114 2.0114 0 0 1 2.0062-2.0075zm3.2872 2.359a1.2186 1.2186 0 1 1-1.2186 1.2186 1.2186 1.2186 0 0 1 1.2186-1.2186zm-5.5434 0a1.2186 1.2186 0 1 1-1.2186 1.2186 1.2186 1.2186 0 0 1 1.2186-1.2186zm0.83059 4.0827a0.29683 0.29683 0 0 1-0.04947-0.04947 0.28381 0.28381 0 0 1-0.0677-0.17706 0.28771 0.28771 0 0 1 0.05989-0.18096 0.31245 0.31245 0 0 1 0.05077-0.05077 0.4192 0.4192 0 0 1 0.50513-0.01041 2.911 2.911 0 0 0 0.73295 0.42181 1.9346 1.9346 0 0 0 0.71212 0.13019 2.1064 2.1064 0 0 0 0.71994-0.14321 3.3055 3.3055 0 0 0 0.74858-0.4192 0.42181 0.42181 0 0 1 0.50643 0.02343 0.39056 0.39056 0 0 1 0.04817 0.05338 0.28902 0.28902 0 0 1 0.05468 0.18226 0.30334 0.30334 0 0 1-0.07551 0.17575 0.29813 0.29813 0 0 1-0.05598 0.04947 3.9824 3.9824 0 0 1-0.95427 0.52075 2.9006 2.9006 0 0 1-0.98031 0.18617 2.7626 2.7626 0 0 1-0.98422-0.16664 3.6166 3.6166 0 0 1-0.96469-0.54158zm6.2164-5.7647h-8.5559a1.3357 1.3357 0 0 0-1.3305 1.3318v5.0187a1.3357 1.3357 0 0 0 1.3305 1.3318h0.41269a0.33979 0.33979 0 0 1 0.31375 0.36062l-0.13019 1.8981 2.5126-2.1624a0.33328 0.33328 0 0 1 0.23824-0.09764h5.2075a1.3357 1.3357 0 0 0 1.3305-1.3318v-5.0187a1.3331 1.3331 0 0 0-1.3292-1.3305z" stroke-width=".13019"/>
</svg>
