<svg version="1.1" viewBox="0 0 16 16" xmlns="http://www.w3.org/2000/svg">
 <g id="icon" transform="matrix(3.7795 0 0 3.7795 -.00031741 -5.6562e-5)">
  <path d="m0.21902 3.0221 1.6564-1.6576 0.24123-0.24122 0.24123 0.24122 1.2227 1.2227-0.00179 0.00617-0.02412 0.071037-0.027372 0.069336-0.030775 0.067699-0.033876 0.066051-0.030797 0.053453-1.3152-1.3152c-0.57389 0.57433-1.1478 1.1486-1.7216 1.7229-0.066267-0.097602-0.12782-0.19813-0.17599-0.30655z"/>
  <path d="m2.1167-2.4031e-5c1.1659 0 2.1167 0.95082 2.1167 2.1167 0 1.1658-0.95078 2.1167-2.1167 2.1167-0.63682 0-1.2094-0.28395-1.5979-0.73145l0.074795-0.075075 0.054292-0.054314 0.0544-0.054465 0.054422-0.054422 0.002218-0.0022c0.32644 0.38653 0.81415 0.63282 1.3578 0.63282 0.97908 0 1.7776-0.79847 1.7776-1.7776 0-0.97915-0.79852-1.7776-1.7776-1.7776-0.97912 0-1.7776 0.79849-1.7776 1.7776 0 0.13186 0.014666 0.26034 0.042157 0.38418l-0.11794 0.11819-0.15742 0.15755c-0.06856-0.20788-0.10584-0.42961-0.10584-0.65992 0-1.1659 0.95078-2.1167 2.1167-2.1167z"/>
 </g>
</svg>
