<svg width="16" height="16" viewBox="0 0 16 16" xmlns="http://www.w3.org/2000/svg">
<g id="icon" transform="matrix(.1 0 0 -.1 0 511)"><g transform="matrix(.016327 0 0 .016327 -1.6333 5028.2)"><path d="m3112.3 3667.4c-8-21.3-10.6-281.7-8-579.3l8-544.8h318.8v1142.7l-154.1 8c-108.9 5.3-156.7-2.7-164.7-26.6z"/><path d="m1013 2742.6-103.6-106.3 395.9-398.6c217.9-220.6 411.9-398.6 425.2-398.6 34.5 0 225.9 191.3 225.9 225.9 0 42.5-754.7 783.9-797.2 783.9-23.9 0-90.4-47.8-146.2-106.3z"/><path d="m4991.1 2468.9c-207.3-207.3-377.3-390.6-377.3-406.6 0-34.5 191.3-223.2 228.5-223.2 42.5 0 781.3 754.7 781.3 799.9 0 50.5-162.1 209.9-215.3 209.9-21.3 0-207.3-170-417.2-380z"/><path d="m3067.2 2232.4c-709.5-66.4-1347.3-656.4-1493.4-1381.8-53.1-257.8-53.1-422.5 0-680.3 69.1-350.8 217.9-621.8 483.6-890.2 140.8-143.5 154.1-151.5 186-106.3 18.6 26.6 74.4 103.6 122.2 170.1l90.3 124.9-127.5 124.9c-393.3 388-486.3 1044.3-217.9 1538.6 417.2 770.6 1442.9 935.4 2086 329.5l135.5-124.9 132.9 124.9c74.4 69.1 138.2 138.2 143.5 154.1 15.9 55.8-324.2 329.5-539.4 435.8-337.5 167.4-616.5 217.9-1001.8 180.7z"/><path d="m5416.3 1626.6c-308.3-82.4-547.4-220.6-789.2-465-326.9-324.3-518.3-754.8-518.3-1161.3v-154.1h-178c-568.7-2.6-1124-332.2-1403.1-837.1-478.3-863.6-135.5-1923.9 754.7-2330.5 334.8-154.1 326.9-154.1 2681.3-154.1 1870.8 0 2187 5.3 2365 42.5 396 82.4 701.6 249.8 1004.5 555.4 603.2 605.9 738.8 1533.3 340.2 2298.6-239.2 457-656.4 797.2-1179.9 961.9-170.1 53.1-255.1 61.1-579.3 61.1h-377.3l-42.5 127.5c-61.1 186-279 499.6-465.1 667-422.6 382.7-1055 534.2-1613 388.1zm693.5-465.1c350.8-74.4 688.3-318.9 850.4-616.5 39.9-77.1 111.6-260.4 154.1-411.9 45.2-151.5 85-276.4 87.7-281.7 5.3-2.7 124.9 18.6 271.1 50.5 640.4 135.5 1110.8 18.6 1501.4-372 462.4-462.4 563.4-1158.6 255.1-1740.6-178-340.2-592.6-656.4-956.6-730.8-95.7-21.3-829.1-29.2-2373-23.9l-2232.1 8-199.3 98.3c-247.1 122.2-446.4 324.2-560.7 568.7s-132.9 582-50.5 829.1c143.5 422.5 454.4 701.5 876.9 791.9 148.8 29.2 247.1 31.9 486.3 10.6 164.7-13.3 321.5-26.6 348.1-26.6 42.5 0 45.2 34.6 42.5 406.6-2.7 247.2 8 449.1 29.2 523.5 124.9 462.4 499.6 815.8 967.3 916.8 212.5 47.9 284.2 47.9 502.1 0z"/><path d="m128.2 672.6c-23.9-13.3-31.9-69.1-26.6-178l8-156.8 542.1-8c377.3-5.3 552.7 2.7 576.7 23.9 21.3 18.6 37.2 82.4 37.2 159.4 0 101-10.6 135.5-50.5 156.8-61.2 31.9-1036.5 37.2-1086.9 2.7z"/><path d="m1308-1214.1-395.9-398.6 71.7-93c138.2-183.4 164.8-172.7 566 225.9 196.6 196.6 369.4 377.3 382.7 401.3 18.6 37.2 2.7 69.1-71.8 154.1-53.1 58.5-109 106.3-127.5 106.3-16-0.1-207.3-178.1-425.2-396z"/></g></g>
</svg>
