<?xml version='1.0' encoding='utf8'?>
<svg xmlns="http://www.w3.org/2000/svg" enable-background="new 0 0 64 64" version="1.1" viewBox="0 0 64 64" x="0px" xml:space="preserve" xmlns:xlink="http://www.w3.org/1999/xlink" y="0px"><g fill="var(--svg-weather-cloud-fill)" id="night_none_none" stroke="var(--svg-weather-cloud-stroke)" stroke-width="var(--svg-weather-cloud-stroke-width)"><g transform="scale(0.85),translate(7,7)"><g fill="var(--svg-weather-stars-fill)" id="stars" stroke="var(--svg-weather-stars-stroke)" stroke-miterlimit="10" stroke-width="var(--svg-weather-stars-stroke-width)"><polygon points="2.7 4 1.5 3.3 2.7 2.7 3.3 1.5 4 2.7 5.2 3.3 4 4 3.3 5.2" transform="matrix(2.5316 0 0 2.5316 -1.635 -.327)" /><polygon points="2.7 4 1.5 3.3 2.7 2.7 3.3 1.5 4 2.7 5.2 3.3 4 4 3.3 5.2" transform="matrix(2.5316,0,0,2.5316,48.997,24.989)" /></g><path d="m35.073 33.09c0-9.3669 5.0632-17.468 12.658-22.025-3.7974-2.2784-8.1011-3.2911-12.658-3.2911-13.924 0-25.316 11.392-25.316 25.316s11.392 25.316 25.316 25.316c4.5569 0 8.8606-1.2658 12.658-3.2911-7.5948-4.3037-12.658-12.658-12.658-22.025z" fill="var(--svg-weather-moon-fill)" id="moon" stroke="var(--svg-weather-moon-stroke)" stroke-linejoin="round" stroke-width="var(--svg-weather-moon-stroke-width)" /></g></g></svg>