<?xml version='1.0' encoding='utf8'?>
<svg xmlns="http://www.w3.org/2000/svg" enable-background="new 0 0 64 64" version="1.1" viewBox="0 0 64 64" x="0px" xml:space="preserve" xmlns:xlink="http://www.w3.org/1999/xlink" y="0px"><g id="rain"><g id="g3" transform="matrix(.10458 0 0 .10458 -.000051248 .00000104)"><path d="m517.35 364.02c-73.984-0.3916-170.72-0.48224-196.84-0.18812v163.08c0 40.588-29.499 73.608-65.759 73.608s-65.759-33.02-65.759-73.608c0-8.9701 6.493-16.237 14.506-16.237 8.0128 0 14.506 7.2671 14.506 16.237 0 22.68 16.484 41.132 36.746 41.132 20.263 0 36.746-18.451 36.746-41.132v-162.82c-63.02-0.44-131.88-0.28-196.84-0.34 9.46-115.63 75.75-207.55 196.84-214.39v-12.137c0-8.9692 6.493-16.237 14.506-16.237 8.0128 0 14.506 7.268 14.506 16.237v12.139c121.17 6.8592 187.51 98.909 196.84 214.66z" id="path5" stroke-width="22.95" /><g stroke-width="20.385"><path d="m268.89 82.791 16.16-67.425" id="path4178" /><path d="m203.75 81.348 16.167-67.424" id="path4178-3" /><path d="m338.89 84.234 16.17-67.425" id="path4178-6" /><path d="m398.85 86.398 16.167-67.424" id="path4178-7" /></g></g></g></svg>