<svg version="1.1" viewBox="0 0 16 16" xmlns="http://www.w3.org/2000/svg"><g id="icon" ><circle cx="256" cy="256" r="224" fill="#fff" stroke-width="1.5"/><path d="m7.3166 1.2849c-5.5541 0.48474-8.9385 6.3211-6.5286 11.259 0.48733 0.99837 1.4886 2.2711 1.6509 2.0987 0.0349-0.0369 0.26525-0.27948 0.51214-0.53895l0.4489-0.47179-0.2869-0.32599c-3.7462-4.2572-0.55665-10.818 5.1608-10.616 5.5321 0.19585 8.2746 6.7296 4.5029 10.728-0.28419 0.30126-0.321 0.2045 0.31184 0.81944l0.52433 0.50955 0.1625-0.15671c0.94729-0.91386 1.7494-2.4 2.0473-3.7934 1.1116-5.1988-3.1624-9.978-8.5062-9.5116m1.5903 5.9006c-1.2257 1.016-2.2481 1.8658-2.272 1.8885-0.0404 0.0385 1.2601 1.4766 1.3354 1.4766 0.0342 0 3.8722-4.4926 3.8682-4.5279-6e-3 -0.055-0.60935-0.68438-0.6559-0.68438-0.0259 0-1.05 0.83122-2.2756 1.8472" fill-rule="evenodd" stroke-width=".041634"/></g></svg>
