<?xml version='1.0' encoding='utf8'?>
<svg xmlns="http://www.w3.org/2000/svg" enable-background="new 0 0 64 64" version="1.1" viewBox="0 0 64 64" x="0px" xml:space="preserve" xmlns:xlink="http://www.w3.org/1999/xlink" y="0px"><g fill="var(--svg-weather-cloud-fill)" id="cloudy-day-2_raindrop4_none" stroke="var(--svg-weather-cloud-stroke)" stroke-width="var(--svg-weather-cloud-stroke-width)"><g mask="url(#mask_cloudy-day-2_raindrop4_none)"><g><g fill="var(--svg-weather-sun-fill)" id="sun" stroke="var(--svg-weather-sun-stroke)" stroke-width="var(--svg-weather-sun-stroke-width)"><g stroke-linecap="round"><line x1="12.875" x2="9.793" y1="33.731" y2="36.813" /><line x1="9.0452" x2="4.6868" y1="24.486" y2="24.486" /><line x1="12.875" x2="9.793" y1="15.24" y2="12.158" /><line x1="22.12" x2="22.12" y1="11.41" y2="7.0521" /><line x1="31.366" x2="34.448" y1="15.24" y2="12.158" /></g><path d="m22.121 17.223a7.264 7.264 0 0 0-7.2656 7.2637 7.264 7.264 0 0 0 6.3184 7.1934c-0.16611-0.71652-0.30274-1.4563-0.30274-2.2129 0-4.4413 2.979-8.1815 7.0449-9.3496a7.264 7.264 0 0 0-5.7949-2.8945z" /></g><g fill="var(--svg-weather-clouds-fill)" id="clouds" stroke="var(--svg-weather-clouds-stroke)" stroke-linejoin="round" stroke-width="var(--svg-weather-clouds-stroke-width)"><path d="m56.218 40.065c0-6.6829-5.3754-11.913-11.913-11.913-1.4528 0-2.7603 0.29056-4.0678 0.7264-0.43584-4.9395-4.5037-9.0074-9.5885-9.0074-5.3754 0-9.7338 4.3584-9.7338 9.7338 0 1.1622 0.29056 2.3245 0.58112 3.3414-0.43584-0.14528-1.017-0.14528-1.4528-0.14528-5.3754 0-9.7338 4.3584-9.7338 9.7338 0 5.2301 4.2131 9.5885 9.4432 9.7338h24.988c6.3923-0.7264 11.477-5.8112 11.477-12.204z" /><path d="m47.771 15.898c-2.2544 0.11346-4.2705 1.6733-4.8613 3.9746-0.15722 0.6124-0.16201 1.2627-0.14648 1.8379-0.20999-0.1355-0.51644-0.21448-0.74609-0.27344-1.7784-0.45654-3.5766 0.04687-4.8496 1.1855 1.6592 1.6273 2.7545 3.8411 2.9688 6.2695 1.3075-0.43584 2.6156-0.72656 4.0684-0.72656 4.7263 0 8.8324 2.7415 10.752 6.7812 2.443-0.51886 4.4935-2.2664 5.1406-4.7871 0.90399-3.5213-1.2213-7.0043-4.666-7.8887-0.7655-0.19652-1.4943-0.22075-2.2422-0.16797 0.43852-2.6617-1.1547-5.3552-3.834-6.043-0.53107-0.13634-1.0637-0.18829-1.584-0.16211z" /></g></g></g><g fill="var(--svg-weather-raindrop-fill)" stroke="var(--svg-weather-raindrop-stroke)" stroke-width="var(--svg-weather-raindrop-stroke-width)" transform="scale(0.5),translate(30,72)"><g stroke-linecap="round" stroke-linejoin="bevel"><path d="m4.4125 51.152 14.57-25.119" id="path4135" /><path d="m23.013 38.112 14.569-25.119" id="path4135-3" /><path d="m26.273 51.152 14.569-25.119" id="path4135-6" /><path d="m44.969 38.016 14.57-25.119" id="path4135-7" /></g></g></g><mask id="mask_cloudy-day-2_raindrop4_none"><rect fill="white" height="64" width="64" x="0" y="0" /><rect fill="var(--svg-weather-mask-fill)" height="9" width="29" x="16" y="48" /></mask></svg>