<?xml version='1.0' encoding='utf8'?>
<svg xmlns="http://www.w3.org/2000/svg" enable-background="new 0 0 64 64" version="1.1" viewBox="0 0 64 64" x="0px" xml:space="preserve" xmlns:xlink="http://www.w3.org/1999/xlink" y="0px"><g fill="var(--svg-weather-cloud-fill)" id="cloudy-day-0_raindrop4_none" stroke="var(--svg-weather-cloud-stroke)" stroke-width="var(--svg-weather-cloud-stroke-width)"><g><g><path d="m61.27 42.709c0-5.2616-4.2321-9.3794-9.3794-9.3794-1.1438 0-2.1734 0.22877-3.2027 0.57192-0.34315-3.889-3.546-7.0918-7.5493-7.0918-4.2321 0-7.6637 3.4315-7.6637 7.6637 0 0.91507 0.22877 1.8301 0.45753 2.6309-0.34315-0.11438-0.80068-0.11438-1.1438-0.11438-4.2321 0-7.6637 3.4315-7.6637 7.6638 0 4.1178 3.317 7.5493 7.4348 7.6637h19.674c5.0329-0.57192 9.0363-4.5753 9.0363-9.6082z" fill="var(--svg-weather-clouds-fill)" id="clouds_mask" /><g fill="var(--svg-weather-sun-fill)" id="sun" stroke="var(--svg-weather-sun-stroke)" stroke-width="var(--svg-weather-sun-stroke-width)"><g stroke-linecap="round"><path d="m22.408 44.244v4.7028" /><path d="m12.432 40.111-3.3254 3.3254" /><path d="m8.3 30.135h-4.7028" /><path d="m12.432 20.159-3.3254-3.3254" /><path d="m22.408 16.027v-4.7028" /><path d="m32.385 20.159 3.3254-3.3254" /></g><path d="m30.246 30.135a7.838 7.838 0 0 1-7.838 7.838 7.838 7.838 0 0 1-7.838-7.838 7.838 7.838 0 0 1 7.838-7.838 7.838 7.838 0 0 1 7.838 7.838z" /></g><path d="m61.27 42.709c0-5.2616-4.2321-9.3794-9.3794-9.3794-1.1438 0-2.1734 0.22877-3.2027 0.57192-0.34315-3.889-3.546-7.0918-7.5493-7.0918-4.2321 0-7.6637 3.4315-7.6637 7.6637 0 0.91507 0.22877 1.8301 0.45753 2.6309-0.34315-0.11438-0.80068-0.11438-1.1438-0.11438-4.2321 0-7.6637 3.4315-7.6637 7.6638 0 4.1178 3.317 7.5493 7.4348 7.6637h19.674c5.0329-0.57192 9.0363-4.5753 9.0363-9.6082z" fill="transparent" id="clouds" mask="url(#mask_cloudy-day-0_raindrop4_none)" stroke="var(--svg-weather-clouds-stroke)" stroke-linejoin="round" stroke-width="var(--svg-weather-clouds-stroke-width)" /></g></g><g fill="var(--svg-weather-raindrop-fill)" stroke="var(--svg-weather-raindrop-stroke)" stroke-width="var(--svg-weather-raindrop-stroke-width)" transform="scale(0.4),translate(70,102)"><g stroke-linecap="round" stroke-linejoin="bevel"><path d="m4.4125 51.152 14.57-25.119" id="path4135" /><path d="m23.013 38.112 14.569-25.119" id="path4135-3" /><path d="m26.273 51.152 14.569-25.119" id="path4135-6" /><path d="m44.969 38.016 14.57-25.119" id="path4135-7" /></g></g></g><mask id="mask_cloudy-day-0_raindrop4_none"><rect fill="white" height="64" width="64" x="0" y="0" /><rect fill="black" height="4" width="24" x="30" y="51" /></mask></svg>