<?xml version='1.0' encoding='utf8'?>
<svg xmlns="http://www.w3.org/2000/svg" enable-background="new 0 0 64 64" version="1.1" viewBox="0 0 64 64" x="0px" xml:space="preserve" xmlns:xlink="http://www.w3.org/1999/xlink" y="0px"><g id="raindrop"><path d="M43.376 26.653h-.325c-.324 0-.486 0-.648-.162h-.162c-3.726-.648-6.805-4.375-7.129-8.425V16.77c.162-.648.324-1.459.486-2.269.324-.486.648-1.134.972-1.782l1.135-1.62c2.592-3.079 4.698-6.157 6.157-9.398 1.62 3.889 4.212 7.291 6.319 9.884.162.324.486.81.972 1.296.324.648.81 1.458 1.296 2.106.162.486.324 1.297.486 1.945V18.876c-.486 3.565-3.403 6.967-6.967 7.615h-.162c-.162 0-.324.162-.648.162h-1.782" /><path d="M44.159 3.727c1.62 3.402 3.888 6.157 5.67 8.425.325.486.649.81.81 1.134.487.648.81 1.296 1.135 2.106.162.486.324 1.135.324 1.62v1.621c-.324 3.24-3.079 6.319-6.32 6.967h-.323H42.214c-3.402-.648-6.157-4.05-6.319-7.615V16.85l.486-1.945c.324-.648.649-1.134.973-1.62l1.134-1.62c2.268-2.593 4.212-5.185 5.67-7.94M44.322 0c-1.783 3.889-4.213 7.453-6.967 10.856l-1.297 1.62-.972 1.944c-.324.81-.486 1.62-.648 2.43v1.297c.162 4.212 3.565 8.425 7.777 9.073.324.324.81.324 1.135.324h1.458c.324 0 .81 0 1.296-.162 3.889-.648 7.13-4.374 7.615-8.263.162-.162 0-.486.162-.81v-1.296c-.162-.81-.324-1.459-.486-2.269-.324-.81-.81-1.62-1.296-2.43-.324-.324-.648-.81-.972-1.296-2.593-3.079-4.861-6.481-6.32-10.208z" /><path d="M19.072 44.881h-.324c-.324 0-.486 0-.648-.162h-.162c-3.727-.648-6.806-4.375-7.13-8.425v-1.297c.162-.648.324-1.458.487-2.268.324-.486.648-1.134.972-1.782l1.134-1.62c2.592-3.079 4.699-6.157 6.157-9.398 1.62 3.889 4.212 7.291 6.319 9.884.162.324.486.81.972 1.296.324.648.81 1.458 1.296 2.106.162.486.324 1.296.486 1.944V37.104c-.486 3.564-3.402 6.967-6.967 7.615h-.162c-.162 0-.324.162-.648.162h-1.782" /><path d="M19.841 21.968c1.62 3.402 3.889 6.157 5.671 8.425.324.486.648.81.81 1.134.486.649.81 1.297 1.135 2.107.162.486.324 1.134.324 1.62V36.874c-.324 3.24-3.079 6.32-6.32 6.967h-.323H17.897c-3.402-.648-6.157-4.05-6.319-7.615v-.972l.486-1.944c.324-.648.648-1.134.972-1.62l1.134-1.62c2.269-2.755 4.213-5.348 5.671-8.102m.162-3.727c-1.782 3.889-4.212 7.454-6.967 10.856l-1.296 1.62-.972 1.945c-.324.81-.486 1.62-.648 2.43v1.296c.162 4.213 3.564 8.426 7.777 9.074.324.162.81.162 1.296.162h1.458c.325 0 .81 0 1.297-.162 3.888-.648 7.129-4.375 7.615-8.264.162-.162 0-.486.162-.81v-1.134c-.162-.81-.324-1.458-.486-2.268-.324-.81-.81-1.62-1.296-2.43-.324-.325-.648-.81-.973-1.297-2.592-3.078-4.86-6.48-6.319-10.208z" /><path d="M43.376 63.109h-.325c-.324 0-.486 0-.648-.162h-.162c-3.726-.648-6.805-4.375-7.129-8.425v-1.297c.162-.648.324-1.458.486-2.268.324-.486.648-1.134.972-1.782l1.135-1.62c2.592-3.08 4.698-6.158 6.157-9.398 1.62 3.889 4.212 7.291 6.319 9.884.162.324.486.81.972 1.296.324.648.81 1.458 1.296 2.106.162.486.324 1.296.486 1.944V55.332c-.486 3.564-3.403 6.967-6.967 7.615h-.162c-.162 0-.324.162-.648.162h-1.782" /><path d="M44.159 40.182c1.62 3.403 3.888 6.157 5.67 8.426.325.486.649.81.81 1.134.487.648.81 1.296 1.135 2.106.162.486.324 1.134.324 1.62v1.621c-.324 3.24-3.079 6.319-6.32 6.967h-.323H42.214c-3.402-.648-6.157-4.05-6.319-7.615v-1.135l.486-1.944c.324-.648.649-1.134.973-1.62l1.134-1.62c2.268-2.593 4.212-5.185 5.67-7.94m.163-3.726c-1.783 3.888-4.213 7.453-6.967 10.855l-1.297 1.62-.972 1.945c-.324.81-.486 1.62-.648 2.43v1.297c.162 4.212 3.565 8.425 7.777 9.073.324.324.81.324 1.135.324h1.458c.324 0 .81 0 1.296-.162 3.889-.648 7.13-4.375 7.615-8.263.162-.162 0-.486.162-.81v-1.297c-.162-.81-.324-1.458-.486-2.268-.324-.81-.81-1.62-1.296-2.43-.324-.324-.648-.81-.972-1.297-2.593-3.078-4.861-6.48-6.32-10.207z" /></g></svg>