<?xml version='1.0' encoding='utf8'?>
<svg xmlns="http://www.w3.org/2000/svg" enable-background="new 0 0 64 64" version="1.1" viewBox="0 0 64 64" x="0px" xml:space="preserve" xmlns:xlink="http://www.w3.org/1999/xlink" y="0px"><g id="temperature"><g id="g3" transform="translate(0,-426)"><g id="g5" transform="matrix(.13061 0 0 .13061 -4.343 426)"><path d="m262.1 490c-14.151 0-27.883-2.774-40.818-8.245-12.487-5.281-23.7-12.841-33.326-22.468-9.626-9.626-17.185-20.838-22.468-33.326-5.47-12.933-8.244-26.666-8.244-40.816 0-16.766 4.058-33.445 11.733-48.233 6.607-12.729 15.9-24.11 27.054-33.183v-253.76c0-27.555 22.41-49.97 49.97-49.97h32.201c27.552 0 49.968 22.415 49.968 49.967v253.76c11.154 9.072 20.447 20.453 27.054 33.183 7.676 14.788 11.733 31.468 11.733 48.233 0 14.15-2.773 27.884-8.245 40.816-5.282 12.488-12.84 23.7-22.467 33.326-9.626 9.627-20.839 17.186-33.327 22.468-12.932 5.471-26.665 8.245-40.817 8.245zm-16.1-469.42c-16.205 0-29.389 13.184-29.389 29.389v258.81c0 3.281-1.565 6.366-4.213 8.304-21.649 15.84-34.574 41.283-34.574 68.06 0 46.47 37.806 84.276 84.277 84.276s84.277-37.807 84.277-84.276c0-26.777-12.925-52.221-34.575-68.06-2.648-1.938-4.213-5.023-4.213-8.304v-258.81c0-16.205-13.184-29.389-29.389-29.389h-32.201z" id="path7" /></g><path d="m32.221 468.45v-29.342c0-1.1648-0.42175-2.109-1.5864-2.109h-1.4892c-1.1647 0-1.5864 0.94419-1.5864 2.109v29.342c-3.208 1.166-6.0219 4.2416-6.0219 7.8525 0 4.6132 3.7397 8.353 8.3529 8.353s8.353-3.7398 8.353-8.353c-0.00013-3.6109-2.8139-6.6866-6.022-7.8525z" id="path9" /><g id="g11" transform="matrix(.13061 0 0 .13061 27.265 422.6)"><g id="g13"><g id="g15"><path d="m157.26 75.302c0 4.658-3.776 8.436-8.436 8.436h-17.341c-4.66 0-8.437-3.778-8.437-8.436v-9.192c0-4.66 3.777-8.437 8.437-8.437h17.341c4.66 0 8.436 3.776 8.436 8.437v9.192z" id="path17" /><path d="m157.26 130.3c0 4.66-3.776 8.437-8.436 8.437h-17.341c-4.66 0-8.437-3.776-8.437-8.437v-9.192c0-4.66 3.777-8.437 8.437-8.437h17.341c4.66 0 8.436 3.776 8.436 8.437v9.192z" id="path19" /><path d="m157.26 185.29c0 4.66-3.776 8.437-8.436 8.437h-17.341c-4.66 0-8.437-3.776-8.437-8.437v-9.191c0-4.659 3.777-8.438 8.437-8.438h17.341c4.66 0 8.436 3.778 8.436 8.438v9.191z" id="path21" /></g><path d="m157.26 240.29c0 4.659-3.776 8.438-8.436 8.438h-17.341c-4.66 0-8.437-3.778-8.437-8.438v-9.191c0-4.66 3.777-8.436 8.437-8.436h17.341c4.66 0 8.436 3.776 8.436 8.436v9.191z" id="path23" /></g><path d="m157.26 295.29c0 4.661-3.776 8.438-8.436 8.438h-17.341c-4.66 0-8.437-3.776-8.437-8.438v-9.191c0-4.658 3.777-8.436 8.437-8.436h17.341c4.66 0 8.436 3.778 8.436 8.436v9.191z" id="path25" /></g></g></g></svg>