<?xml version='1.0' encoding='utf8'?>
<svg xmlns="http://www.w3.org/2000/svg" enable-background="new 0 0 64 64" version="1.1" viewBox="0 0 64 64" x="0px" xml:space="preserve" xmlns:xlink="http://www.w3.org/1999/xlink" y="0px"><g fill="var(--svg-weather-cloud-fill)" id="cloudy-night-2_raindrop3_none" stroke="var(--svg-weather-cloud-stroke)" stroke-width="var(--svg-weather-cloud-stroke-width)"><g mask="url(#mask_cloudy-night-2_raindrop3_none)"><g fill="var(--svg-weather-stars-fill)" id="stars" stroke="var(--svg-weather-stars-stroke)" stroke-width="var(--svg-weather-stars-stroke-width)"><polygon points="3.3 5.2 2.7 4 1.5 3.3 2.7 2.7 3.3 1.5 4 2.7 5.2 3.3 4 4" transform="matrix(1.1922 0 0 1.1922 32.004 6.7261)" /><polygon points="3.3 5.2 2.7 4 1.5 3.3 2.7 2.7 3.3 1.5 4 2.7 5.2 3.3 4 4" transform="matrix(1.1922 0 0 1.1922 55.849 18.649)" /><path d="m49.291 10.541c-5.8711 0-10.772 4.3054-11.736 9.9121 3.632 1.4219 6.207 4.9373 6.207 9.0566 0 1.1063-0.2677 2.2045-0.54492 3.1855 0.05828 0.03483 0.11492 0.07161 0.17383 0.10547 0.40351-0.08881 0.87637-0.0957 1.248-0.0957 2.019 0 3.893 0.61078 5.4512 1.6543 4.62e-4 3.09e-4 0.0015-3.1e-4 2e-3 0 1.8501-0.12714 3.5973-0.68887 5.1621-1.5234-3.5767-2.0268-5.9629-5.9618-5.9629-10.373 0-4.4113 2.3862-8.2251 5.9629-10.371-1.7884-1.073-3.8169-1.5508-5.9629-1.5508z" fill="var(--svg-weather-moon-fill)" id="moon" stroke="var(--svg-weather-moon-stroke)" stroke-linejoin="round" stroke-width="var(--svg-weather-moon-stroke-width)" /></g><g fill="var(--svg-weather-clouds-fill)" id="clouds" stroke="var(--svg-weather-clouds-stroke)" stroke-linejoin="round" stroke-width="var(--svg-weather-clouds-stroke-width)"><path d="m8.2541 40.021c0-6.7028 5.4118-11.949 11.994-11.949 1.4627 0 2.779 0.29143 4.0954 0.72857 0.4388-4.9543 4.5342-9.0342 9.6535-9.0342 5.4118 0 9.7998 4.3714 9.7998 9.7628 0 1.1657-0.29253 2.3314-0.58506 3.3514 0.4388-0.14571 1.0239-0.14571 1.4627-0.14571 5.4118 0 9.7998 4.3714 9.7998 9.7628 0 5.2457-4.2417 9.6171-9.5073 9.7628h-25.158c-6.4357-0.72857-11.555-5.8285-11.555-12.24z" /><path d="m16.757 15.782c2.2697 0.1138 4.2995 1.6783 4.8943 3.9865 0.15829 0.61423 0.16311 1.2665 0.14748 1.8434 0.21142-0.13591 0.51995-0.21512 0.75116-0.27425 1.7904-0.4579 3.6009 0.04701 4.8825 1.1891-1.6705 1.6321-2.7732 3.8526-2.9889 6.2882-1.3164-0.43714-2.6333-0.72873-4.096-0.72873-4.7584 0-8.8924 2.7497-10.825 6.8015-2.4596-0.5204-4.524-2.2731-5.1755-4.8014-0.91012-3.5318 1.2295-7.0252 4.6977-7.9122 0.77069-0.1971 1.5044-0.22141 2.2574-0.16847-0.4415-2.6696 1.1626-5.3711 3.86-6.061 0.53467-0.13674 1.0709-0.18886 1.5947-0.16259z" /></g></g><g fill="var(--svg-weather-raindrop-fill)" stroke="var(--svg-weather-raindrop-stroke)" stroke-width="var(--svg-weather-raindrop-stroke-width)" transform="scale(0.5),translate(30,77)"><g fill="none" stroke="#000" stroke-linecap="round" stroke-linejoin="bevel" stroke-width="7"><path d="m7.8641 44.44 14.57-25.119" id="path4135" /><path d="m30.204 33.414 14.569-25.119" id="path4135-3" /><path d="m41.614 44.536 14.569-25.119" id="path4135-6" /></g></g></g><mask id="mask_cloudy-night-2_raindrop3_none"><rect fill="white" height="64" width="64" x="0" y="0" /><rect fill="var(--svg-weather-mask-fill)" height="5" width="30" x="17" y="50" /></mask></svg>