<?xml version='1.0' encoding='utf8'?>
<svg xmlns="http://www.w3.org/2000/svg" enable-background="new 0 0 64 64" version="1.1" viewBox="0 0 64 64" x="0px" xml:space="preserve" xmlns:xlink="http://www.w3.org/1999/xlink" y="0px"><g fill="var(--svg-weather-cloud-fill)" id="cloudy-night-1_raindrop3_thunder" stroke="var(--svg-weather-cloud-stroke)" stroke-width="var(--svg-weather-cloud-stroke-width)"><g mask="url(#mask_cloudy-night-1_raindrop3_thunder)"><g fill="var(--svg-weather-stars-fill)" id="stars" stroke="var(--svg-weather-stars-stroke)" stroke-width="var(--svg-weather-stars-stroke-width)"><polygon points="4 2.7 5.2 3.3 4 4 3.3 5.2 2.7 4 1.5 3.3 2.7 2.7 3.3 1.5" transform="matrix(1.1922 0 0 1.1922 32.004 9.7805)" /><polygon points="4 2.7 5.2 3.3 4 4 3.3 5.2 2.7 4 1.5 3.3 2.7 2.7 3.3 1.5" transform="matrix(1.1922 0 0 1.1922 55.849 21.703)" /><path d="m49.291 13.595c-6.5573 0-11.922 5.3646-11.922 11.922 0 0.66314 0.06841 1.3109 0.17383 1.9453 0.05098-7.01e-4 0.09907-0.0077 0.15039-0.0077 5.9515 0 10.955 4.2302 12.008 9.9727 1.9939-0.07053 3.8789-0.64438 5.5527-1.5371-3.5767-2.0268-5.9629-5.9618-5.9629-10.373s2.3862-8.2251 5.9629-10.371c-1.7884-1.073-3.8169-1.5508-5.9629-1.5508z" fill="var(--svg-weather-moon-fill)" id="moon" stroke="var(--svg-weather-moon-stroke)" stroke-linejoin="round" stroke-width="var(--svg-weather-moon-stroke-width)" /></g><path d="m49.888 39.75c0-6.8554-5.5141-12.22-12.22-12.22-1.4903 0-2.8316 0.29806-4.1728 0.74515-0.44709-5.067-4.6199-9.2399-9.836-9.2399-5.5141 0-9.985 4.4709-9.985 9.985 0 1.1922 0.29806 2.3845 0.59612 3.4277-0.44709-0.14903-1.0432-0.14903-1.4903-0.14903-5.5141 0-9.985 4.4709-9.985 9.985 0 5.3651 4.3219 9.836 9.687 9.985h25.633c6.5573-0.74515 11.773-5.9612 11.773-12.519z" fill="var(--svg-weather-clouds-fill)" id="clouds" stroke="var(--svg-weather-clouds-stroke)" stroke-linejoin="round" stroke-width="var(--svg-weather-clouds-stroke-width)" /></g><g fill="var(--svg-weather-raindrop-fill)" stroke="var(--svg-weather-raindrop-stroke)" stroke-width="var(--svg-weather-raindrop-stroke-width)" transform="scale(0.5),translate(15,77)"><g stroke-linecap="round" stroke-linejoin="bevel"><path d="m7.8641 44.44 14.57-25.119" id="path4135" /><path d="m30.204 33.414 14.569-25.119" id="path4135-3" /><path d="m41.614 44.536 14.569-25.119" id="path4135-6" /></g></g><g fill="var(--svg-weather-thunder-fill)" stroke="var(--svg-weather-thunder-stroke)" stroke-width="var(--svg-weather-thunder-stroke-width)" transform="scale(0.4),translate(30,58)"><g id="g34" transform="matrix(2.5,0,0,2.5,-7.7444698,17.594015)"><polygon class="am-weather-stroke" id="polygon36" points="11.5,14.6 14.9,6.9 11.1,6.9 14.3,-2.9 20.5,-2.9 16.4,4.3 20.3,4.3 " /></g></g></g><mask id="mask_cloudy-night-1_raindrop3_thunder"><rect fill="white" height="64" width="64" x="0" y="0" /><rect fill="var(--svg-weather-mask-fill)" height="9" width="30" x="10" y="48" /></mask></svg>