<?xml version='1.0' encoding='utf8'?>
<svg xmlns="http://www.w3.org/2000/svg" enable-background="new 0 0 64 64" version="1.1" viewBox="0 0 64 64" x="0px" xml:space="preserve" xmlns:xlink="http://www.w3.org/1999/xlink" y="0px"><g fill="var(--svg-weather-cloud-fill)" id="cloudy-day-1_raindrop3_none" stroke="var(--svg-weather-cloud-stroke)" stroke-width="var(--svg-weather-cloud-stroke-width)"><g mask="url(#mask_cloudy-day-1_raindrop3_none)"><g fill="none" stroke="#000"><path d="m61.225 40.065c0-6.6829-5.3754-11.913-11.913-11.913-1.4528 0-2.7603 0.29056-4.0678 0.7264-0.43584-4.9395-4.5037-9.0074-9.5885-9.0074-5.3754 0-9.7338 4.3584-9.7338 9.7338 0 1.1622 0.29056 2.3245 0.58112 3.3414-0.43584-0.14528-1.017-0.14528-1.4528-0.14528-5.3754 0-9.7338 4.3584-9.7338 9.7338 0 5.2301 4.2131 9.5885 9.4432 9.7338h24.988c6.3923-0.7264 11.477-5.8112 11.477-12.204z" fill="var(--svg-weather-clouds-fill)" id="clouds" stroke="var(--svg-weather-clouds-stroke)" stroke-linejoin="round" stroke-width="var(--svg-weather-clouds-stroke-width)" /><g fill="var(--svg-weather-sun-fill)" id="sun" stroke="var(--svg-weather-sun-stroke)" stroke-width="var(--svg-weather-sun-stroke-width)"><g stroke-linecap="round"><line x1="11.612" x2="8.5297" y1="36.579" y2="39.661" /><line x1="7.7819" x2="3.4235" y1="27.333" y2="27.333" /><line x1="11.612" x2="8.5297" y1="18.088" y2="15.006" /><line x1="20.857" x2="20.857" y1="14.258" y2="9.8995" /><line x1="30.103" x2="33.185" y1="18.088" y2="15.006" /></g><path d="m27.433 24.294c-1.1281-2.7015-3.6479-4.222-6.5755-4.2251-4.0115 1.81e-4 -7.2635 3.2521-7.2637 7.2637 0.0042 3.6198 2.5291 6.6122 6.114 7.1136 0.4778-0.31112 1.0231-0.65471 1.554-0.87926 1.1645-0.49259 2.4692-0.76562 3.813-0.76562 0.15484 0 0.38508-0.0037 0.56356 0.0028 0.76032 0.14596 0.75913-0.18451 0.64134-0.65359-0.20062-0.80152-0.35778-1.6841-0.35778-2.5446 0-1.3438 0.27304-2.6246 0.76562-3.7891 0.20432-0.48302 0.46903-1.0834 0.74538-1.5229z" /></g></g></g><g fill="var(--svg-weather-raindrop-fill)" stroke="var(--svg-weather-raindrop-stroke)" stroke-width="var(--svg-weather-raindrop-stroke-width)" transform="scale(0.5),translate(40,77)"><g fill="none" stroke="#000" stroke-linecap="round" stroke-linejoin="bevel" stroke-width="7"><path d="m7.8641 44.44 14.57-25.119" id="path4135" /><path d="m30.204 33.414 14.569-25.119" id="path4135-3" /><path d="m41.614 44.536 14.569-25.119" id="path4135-6" /></g></g></g><mask id="mask_cloudy-day-1_raindrop3_none"><rect fill="white" height="64" width="64" x="0" y="0" /><rect fill="var(--svg-weather-mask-fill)" height="9" width="30" x="22" y="48" /></mask></svg>