<?xml version="1.0" encoding="UTF-8" standalone="no"?>
<svg
   xmlns:dc="http://purl.org/dc/elements/1.1/"
   xmlns:cc="http://creativecommons.org/ns#"
   xmlns:rdf="http://www.w3.org/1999/02/22-rdf-syntax-ns#"
   xmlns:svg="http://www.w3.org/2000/svg"
   xmlns="http://www.w3.org/2000/svg"
   xmlns:sodipodi="http://sodipodi.sourceforge.net/DTD/sodipodi-0.dtd"
   xmlns:inkscape="http://www.inkscape.org/namespaces/inkscape"
   version="1.1"
   viewBox="0 0 64 64"
   viewbox="0 0 64 64"
   id="svg24"
   sodipodi:docname="cloudy.svg"
   inkscape:version="1.0.1 (3bc2e813f5, 2020-09-07)">
  <metadata
     id="metadata30">
    <rdf:RDF>
      <cc:Work
         rdf:about="">
        <dc:format>image/svg+xml</dc:format>
        <dc:type
           rdf:resource="http://purl.org/dc/dcmitype/StillImage" />
      </cc:Work>
    </rdf:RDF>
  </metadata>
  <defs
     id="defs28" />
  <sodipodi:namedview
     pagecolor="#ffffff"
     bordercolor="#666666"
     borderopacity="1"
     objecttolerance="10"
     gridtolerance="10"
     guidetolerance="10"
     inkscape:pageopacity="0"
     inkscape:pageshadow="2"
     inkscape:window-width="1918"
     inkscape:window-height="1130"
     id="namedview26"
     showgrid="false"
     inkscape:zoom="7.8997086"
     inkscape:cx="13.341239"
     inkscape:cy="18.838887"
     inkscape:window-x="0"
     inkscape:window-y="0"
     inkscape:window-maximized="0"
     inkscape:current-layer="g22" />
  <g
     transform="translate(0.72628,-1.8907)"
     fill="none"
     stroke="#000000"
     id="g22">
    <g
       id="clouds"
       stroke-linejoin="round">
      <path
         d="m 55.264,39.901 c 0,-6.773 -5.4479,-12.074 -12.074,-12.074 -1.4724,0 -2.7976,0.29448 -4.1227,0.7362 -0.44172,-5.0062 -4.5644,-9.1289 -9.7178,-9.1289 -5.4479,0 -9.8651,4.4172 -9.8651,9.8651 0,1.1779 0.29448,2.3558 0.58896,3.3865 -0.44172,-0.14724 -1.0307,-0.14724 -1.4724,-0.14724 -5.4479,0 -9.8651,4.4172 -9.8651,9.8651 0,5.3006 4.27,9.7178 9.5706,9.8651 h 25.325 c 6.4786,-0.7362 11.632,-5.8896 11.632,-12.368 z"
         id="path15" />
      <path
         d="m 15.92,20.168 c 2.2697,0.1138 4.2995,1.6783 4.8943,3.9865 -0.18982,0.77246 -0.36806,0.69143 -0.51028,1.2683 -0.40887,0.95996 -0.67898,1.8705 -0.75877,2.5937 -0.25004,2.2666 0.26546,3.4084 0.52822,4.6695 -1.3164,-0.43714 0.89974,-0.2138 -0.56296,-0.2138 -4.7584,0 -8.8924,2.7497 -10.825,6.8015 -2.4596,-0.5204 -4.524,-2.2731 -5.1755,-4.8014 -0.91012,-3.5318 1.2295,-7.0252 4.6977,-7.9122 0.77069,-0.1971 1.5044,-0.22141 2.2574,-0.16847 -0.4415,-2.6696 1.1626,-5.3711 3.86,-6.061 0.53467,-0.13674 1.0709,-0.18886 1.5947,-0.16259 z"
         id="path17" />
        <path
           d="m 46.713,15.519 c -2.2544,0.11346 -4.2705,1.6733 -4.8613,3.9746 -0.15722,0.6124 -0.16201,1.2627 -0.14648,1.8379 -0.20999,-0.1355 -0.51644,-0.21448 -0.74609,-0.27344 -1.7784,-0.45654 -3.5766,0.04687 -4.8496,1.1855 1.6592,1.6273 2.7545,3.8411 2.9688,6.2695 1.3075,-0.43584 2.6156,-0.72656 4.0684,-0.72656 4.7263,0 8.8324,2.7415 10.752,6.7812 2.443,-0.51886 4.4935,-2.2664 5.1406,-4.7871 0.90399,-3.5213 -1.2213,-7.0043 -4.666,-7.8887 -0.7655,-0.19652 -1.4943,-0.22075 -2.2422,-0.16797 0.43852,-2.6617 -1.1547,-5.3552 -3.834,-6.043 -0.53107,-0.13634 -1.0637,-0.18829 -1.584,-0.16211 z"
           id="path20"/>
    </g>
  </g>
</svg>
