<svg version="1.1" viewBox="0 0 64 64" viewbox="0 0 64 64" xmlns="http://www.w3.org/2000/svg"><g fill="none" stroke="#000"><g id="sun"><g stroke-linecap="round"><path d="m22.408 44.244v4.7028"/><path d="m12.432 40.111-3.3254 3.3254"/><path d="m8.3 30.135h-4.7028"/><path d="m12.432 20.159-3.3254-3.3254"/><path d="m22.408 16.027v-4.7028"/><path d="m32.385 20.159 3.3254-3.3254"/></g><path d="m30.246 30.135a7.838 7.838 0 0 1-7.838 7.838 7.838 7.838 0 0 1-7.838-7.838 7.838 7.838 0 0 1 7.838-7.838 7.838 7.838 0 0 1 7.838 7.838z"/></g><path id="clouds" d="m61.27 42.709c0-5.2616-4.2321-9.3794-9.3794-9.3794-1.1438 0-2.1734 0.22877-3.2027 0.57192-0.34315-3.889-3.546-7.0918-7.5493-7.0918-4.2321 0-7.6637 3.4315-7.6637 7.6637 0 0.91507 0.22877 1.8301 0.45753 2.6309-0.34315-0.11438-0.80068-0.11438-1.1438-0.11438-4.2321 0-7.6637 3.4315-7.6637 7.6638 0 4.1178 3.317 7.5493 7.4348 7.6637h19.674c5.0329-0.57192 9.0363-4.5753 9.0363-9.6082z" stroke-linejoin="round"/></g></svg>
