<svg version="1.1" viewBox="0 0 64 64" viewbox="0 0 64 64" xmlns="http://www.w3.org/2000/svg"><g id="stars" stroke-miterlimit="10"><polygon transform="matrix(2.5316 0 0 2.5316 -1.635 -.327)" points="2.7 4 1.5 3.3 2.7 2.7 3.3 1.5 4 2.7 5.2 3.3 4 4 3.3 5.2"/><polygon transform="matrix(2.5316,0,0,2.5316,48.997,24.989)" points="2.7 4 1.5 3.3 2.7 2.7 3.3 1.5 4 2.7 5.2 3.3 4 4 3.3 5.2"/></g><path id="moon" d="m35.073 33.09c0-9.3669 5.0632-17.468 12.658-22.025-3.7974-2.2784-8.1011-3.2911-12.658-3.2911-13.924 0-25.316 11.392-25.316 25.316s11.392 25.316 25.316 25.316c4.5569 0 8.8606-1.2658 12.658-3.2911-7.5948-4.3037-12.658-12.658-12.658-22.025z" fill="none" stroke="#000" stroke-linejoin="round"/></svg>
