<svg version="1.1" viewBox="0 0 64 64" viewbox="0 0 64 64" xmlns="http://www.w3.org/2000/svg"><g id="stars"><polygon transform="matrix(1.3366 0 0 1.3366 28.312 10.167)" points="4 4 3.3 5.2 2.7 4 1.5 3.3 2.7 2.7 3.3 1.5 4 2.7 5.2 3.3"/><polygon transform="matrix(1.3366 0 0 1.3366 55.044 23.533)" points="4 4 3.3 5.2 2.7 4 1.5 3.3 2.7 2.7 3.3 1.5 4 2.7 5.2 3.3"/></g><g fill="none" stroke="#000" stroke-linejoin="round"><path id="moon" d="m47.693 14.444c-7.3513 0-13.367 6.0158-13.367 13.367 0 1.5687 0.28872 3.0692 0.79102 4.4707 3.6168 0.99988 6.4296 3.9553 7.1582 7.7305 1.6591 0.74235 3.4909 1.1641 5.418 1.1641 2.4059 0 4.6767-0.66899 6.6816-1.7383-4.0098-2.2722-6.6816-6.6815-6.6816-11.627s2.6718-9.223 6.6816-11.629c-2.0049-1.2029-4.2757-1.7383-6.6816-1.7383z"/><path id="clouds" d="m42.473 41.977c0-5.636-4.5333-10.047-10.047-10.047-1.2252 0-2.3279 0.24504-3.4306 0.61261-0.36757-4.1658-3.7982-7.5964-8.0865-7.5964-4.5333 0-8.209 3.6757-8.209 8.209 0 0.98018 0.24504 1.9604 0.49009 2.818-0.36757-0.12252-0.85766-0.12252-1.2252-0.12252-4.5333 0-8.209 3.6757-8.209 8.209 0 4.4108 3.5531 8.0865 7.964 8.209h21.074c5.391-0.61261 9.6793-4.9009 9.6793-10.292z"/></g></svg>
