<svg version="1.1" viewBox="0 0 64 64" viewbox="0 0 64 64" xmlns="http://www.w3.org/2000/svg"><g id="clouds" fill="none" stroke="#000" stroke-linejoin="round"><path d="m26.964 10.304c-3.2415 0-5.8688 2.6273-5.8688 5.8688 0 0.70086 0.17478 1.4024 0.35 2.0156-0.26282-0.08761-0.61374-0.0875-0.87656-0.0875-3.2415 0-5.8688 2.6288-5.8688 5.8703 0 2.8585 2.0891 5.2771 4.8281 5.7719-0.0082-0.14332-0.025-0.28611-0.025-0.42969 0-5.4479 4.4177-9.8656 9.8656-9.8656 5.1312 0 9.238 4.0887 9.7094 9.0656 1.9876-1.3317 3.3047-3.5104 3.3047-6.0328 0-4.03-3.2405-7.1828-7.1828-7.1828-0.87608 0-1.6647 0.17468-2.4531 0.4375-0.26282-2.9787-2.7165-5.4312-5.7828-5.4312z"/><path d="m55.264 39.901c0-6.773-5.4479-12.074-12.074-12.074-1.4724 0-2.7976 0.29448-4.1227 0.7362-0.44172-5.0062-4.5644-9.1289-9.7178-9.1289-5.4479 0-9.8651 4.4172-9.8651 9.8651 0 1.1779 0.29448 2.3558 0.58896 3.3865-0.44172-0.14724-1.0307-0.14724-1.4724-0.14724-5.4479 0-9.8651 4.4172-9.8651 9.8651 0 5.3006 4.27 9.7178 9.5706 9.8651h25.325c6.4786-0.7362 11.632-5.8896 11.632-12.368z"/></g></svg>
