<?xml version="1.0" encoding="UTF-8" standalone="no"?>
<!-- Generator: Adobe Illustrator 16.0.0, SVG Export Plug-In . SVG Version: 6.00 Build 0)  -->
<svg id="Capa_1" xmlns:rdf="http://www.w3.org/1999/02/22-rdf-syntax-ns#" xmlns="http://www.w3.org/2000/svg" xml:space="preserve" viewBox="0 0 64 64" version="1.1" y="0px" x="0px" xmlns:cc="http://creativecommons.org/ns#" xmlns:dc="http://purl.org/dc/elements/1.1/"><metadata id="metadata41"><rdf:RDF><cc:Work rdf:about=""><dc:format>image/svg+xml</dc:format><dc:type rdf:resource="http://purl.org/dc/dcmitype/StillImage"/><dc:title/></cc:Work></rdf:RDF></metadata><g id="g3" transform="matrix(.10458 0 0 .10458 -.000051248 .00000104)" stroke="#000" fill="none"><path id="path5" d="m517.35 364.02c-73.984-0.3916-170.72-0.48224-196.84-0.18812v163.08c0 40.588-29.499 73.608-65.759 73.608s-65.759-33.02-65.759-73.608c0-8.9701 6.493-16.237 14.506-16.237 8.0128 0 14.506 7.2671 14.506 16.237 0 22.68 16.484 41.132 36.746 41.132 20.263 0 36.746-18.451 36.746-41.132v-162.82c-63.02-0.44-131.88-0.28-196.84-0.34 9.46-115.63 75.75-207.55 196.84-214.39v-12.137c0-8.9692 6.493-16.237 14.506-16.237 8.0128 0 14.506 7.268 14.506 16.237v12.139c121.17 6.8592 187.51 98.909 196.84 214.66z" stroke-width="22.95"/><g stroke-width="20.385"><path id="path4178" d="m268.89 82.791 16.16-67.425"/><path id="path4178-3" d="m203.75 81.348 16.167-67.424"/><path id="path4178-6" d="m338.89 84.234 16.17-67.425"/><path id="path4178-7" d="m398.85 86.398 16.167-67.424"/></g></g></svg>
