<svg version="1.1" viewBox="0 0 16 16" xmlns="http://www.w3.org/2000/svg"><g id="icon" transform="matrix(.1302 0 0 .1302 1.7232 -1.343e-7)"><path d="m109.66 30.375v62.14c0 4.72-1.94 9.04-5.02 12.12-3.13 3.13-7.4 5.02-12.12 5.02h-88.61c-4.72 0-8.99-1.89-12.12-5.02-3.08-3.08-5.02-7.4-5.02-12.12v-62.14c0-4.72 1.89-8.99 5.02-12.12 3.09-3.08 7.41-5.02 12.13-5.02h88.61c4.71 0 9.03 1.94 12.11 5.02 3.13 3.13 5.02 7.4 5.02 12.12zm-105.09 72.47h88.23v-82.85h-88.23c-0.00492 62.729 0 70.892 0 82.85z"/><path id="path897-3" class="st0" d="m44.228 58.078h0.27c2.12 0 3.87 1.75 3.87 3.87v24.84h2.51v-10.42c0-1.97 1.62-3.59 3.59-3.59h0.27c2.12 0 3.87 1.75 3.87 3.86v10.39l0.12-0.05h2.71v-7.9c0-1.97 1.62-3.59 3.59-3.59h0.27c2.12 0 3.87 1.75 3.87 3.86v7.24h0.02l2.68-0.02v-5.12c0-1.97 1.62-3.59 3.59-3.59h0.27c2.12 0 3.87 1.75 3.87 3.86v10.83c0 0.12 0 0.27-0.02 0.39l0.12 0.1c0.1 2.96 0.08 6.46-0.43 9.9-29.073 0.0785-30.703 0.0256-41.67 0l-12.35-19.58c-0.79-1.85-0.69-3.1 0.1-3.91 3.4-2.22 8.96 2.49 15.12 9.13l0.22-0.05v-26.91c0-1.97 1.62-3.59 3.59-3.59zm2.34-10.37c0 1.06-0.86 1.9-1.9 1.9-1.06 0-1.9-0.86-1.9-1.9v-7.66c0-1.06 0.86-1.9 1.9-1.9 1.06 0 1.9 0.86 1.9 1.9zm-17.28 15.68c1.06 0 1.9 0.86 1.9 1.9 0 1.06-0.86 1.9-1.9 1.9h-7.66c-1.06 0-1.9-0.86-1.9-1.9 0-1.06 0.86-1.9 1.9-1.9zm5.41-11.34c0.74 0.74 0.74 1.94 0 2.68-0.74 0.74-1.94 0.74-2.68 0l-5.39-5.42c-0.74-0.74-0.74-1.94 0-2.68s1.94-0.74 2.68 0zm24.97 15.14c-1.06 0-1.9-0.86-1.9-1.9 0-1.06 0.86-1.9 1.9-1.9h7.66c1.06 0 1.9 0.86 1.9 1.9 0 1.06-0.86 1.9-1.9 1.9zm-2.74-12.88c-0.74 0.74-1.95 0.74-2.68 0s-0.74-1.94 0-2.68l5.39-5.42c0.74-0.74 1.94-0.74 2.68 0s0.74 1.95 0 2.68z"/></g></svg>
