<svg version="1.1" viewBox="0 0 16 16" xmlns="http://www.w3.org/2000/svg">
 <path id="icon" d="m2.8884-1.25e-7c3.0905 0 4.7393 1.824 4.8986 4.7233 0.58146-3.4728 3.3135-3.0666 3.3135-3.0666 0.13541 1.9674-1.4815 3.1622-3.3135 3.2577-0.51774-1.0833-3.6002-3.7436-3.6002-3.7436-0.01593 0.023896 2.963 2.6046 2.8515 3.7277-1.9913-0.21506-3.9905-1.7125-4.1498-4.8986m0.35047 8.8493 3.0745-3.0745c0.93192-0.93192 2.4533-0.93192 3.3772 0l3.0586 3.0745c0.94785 0.93192 0.94785 2.4453 0 3.3772l-3.0586 3.0745c-0.92396 0.93192-2.4453 0.93192-3.3772 0l-3.0745-3.0745c-0.93192-0.93192-0.93192-2.4453 0-3.3772m2.6524 5.1614c0-0.97971 0.60535-2.1825 2.1506-2.1825 1.0434 0 2.2143 0.99564 3.3613 0.88413-1.147-0.03186-2.1665-0.88413-2.1665-2.2063 0-1.0594 0.87617-1.824 0.87617-3.0666-0.04779 0.78855-0.69297 1.9355-2.1426 1.9355-1.1231 0-1.9515-0.90803-3.2896-0.90803 0.56553 0.03186 2.0948 0.53366 2.0948 2.1665 0 1.3142-0.88413 1.7125-0.88413 3.3772z" stroke-width=".79652"/>
</svg>
