<svg version="1.1" viewBox="0 0 16 16" xmlns="http://www.w3.org/2000/svg">
 <path id="icon" d="m7.9994-8.0898e-8c3.7592 0 6.8061 1.4271 6.8061 3.185 0 1.7591-3.0482 3.185-6.8061 3.185s-6.8061-1.4271-6.8061-3.185c0-1.7578 3.0482-3.185 6.8061-3.185zm-6.8061 10.655v2.4454c1.211 4.3009 13.175 3.4701 13.614-0.22006v-2.4428c-0.59767 4.0509-12.656 4.3425-13.614 0.21745zm-0.03386-6.366v2.3881c1.211 4.2006 13.241 3.6329 13.681 0.02995v-2.3868c-0.59897 3.9571-12.724 3.9975-13.681-0.03125zm0 3.086v2.4454c1.211 4.3009 13.241 3.7201 13.681 0.02995v-2.4428c-0.59897 4.0509-12.724 4.0925-13.681-0.03255z" stroke-width=".13021"/>
</svg>
