<svg version="1.1" viewBox="0 0 16 16" xmlns="http://www.w3.org/2000/svg"><g id="icon" stroke-width=".49582"><path d="m8.9396 5.5234 1.537 1.537-0.6049 0.61481-1.537-1.537zm2.8113-2.8063 1.537 1.537-0.60986 0.61481-1.537-1.537zm-0.09916 5.5234 1.5469 1.537-0.60986 0.61481-1.5866-1.537zm2.8113-2.8063 1.537 1.537-0.6049 0.61481-1.537-1.537zm-6.0837-1.1404 1.5469-1.537 0.60985 0.60985-1.537 1.537zm2.7171 2.7171 1.537-1.537 0.61481 0.6049-1.537 1.537zm2.7121 2.7171 1.537-1.5469 0.61481 0.60985-1.5866 1.537zm-8.2405-2.613 1.537-1.537 0.61481 0.6049-1.537 1.537zm2.7121 2.7121 1.5469-1.537 0.6049 0.6049-1.537 1.537zm2.7171 2.7171 1.537-1.5469 0.61481 0.60985-1.5469 1.5866z"/><path d="m3.322 11.136 1.5469 1.537-0.6049 0.61481-1.5469-1.5469zm2.8113-2.8063 1.537 1.537-0.6049 0.60985-1.537-1.537zm-0.084289 5.5234 1.537 1.537-0.60985 0.60985-1.537-1.537zm2.8014-2.8063 1.537 1.537-0.6049 0.60985-1.537-1.537zm-8.2405-2.6278 1.537 1.537-0.60985 0.6049-1.537-1.537zm2.8113-2.8063 1.537 1.537-0.60985 0.60985-1.537-1.537zm2.8014-2.8063 1.537 1.537-0.59498 0.61481-1.537-1.537zm2.8014-2.8063 1.5469 1.537-0.60985 0.60985-1.5866-1.537zm-3.3567 1.5866 1.537-1.537 0.60985 0.6049-1.537 1.537zm-2.8113 2.8113 1.537-1.537 0.61481 0.60985-1.537 1.537zm-2.8063 2.8113 1.537-1.537 0.60985 0.59498-1.537 1.5469zm2.7072 2.7072 1.537-1.537 0.61481 0.60985-1.537 1.537zm2.7171 2.7171 1.537-1.537 0.60985 0.6049-1.537 1.537zm2.7072 2.7171 1.5469-1.537 0.60985 0.59498-1.537 1.5469z"/></g></svg>
